<?xml version="1.0" encoding="utf-8"?>
<!DOCTYPE svg PUBLIC "-//W3C//DTD SVG 1.1//EN" "http://www.w3.org/Graphics/SVG/1.1/DTD/svg11.dtd">
<svg version="1.1" xmlns="http://www.w3.org/2000/svg" xmlns:xlink="http://www.w3.org/1999/xlink" x="0px" y="0px"
	 viewBox="0 0 100 100" enable-background="new 0 0 100 100" xml:space="preserve">
<path fill="#FFF" d="M80,5H20C11.715759,5,5,11.715698,5,20v60c0,8.284241,6.715759,15,15,15h60c8.284302,0,15-6.715759,15-15V20
	C95,11.715698,88.284302,5,80,5z M57.697266,79.832947H42.922852V68.961853h14.774414V79.832947z M66.904419,39.271545
	c-0.171997,3.536621-1.362305,5.914673-4.605591,11.111206c-3.162415,5.057739-4.264343,7.051331-4.599609,10.027344H42.967773
	c0.168945-2.578125,0.888672-5.560547,3.447266-9.473633c1.430725-2.1828,4.810242-6.304993,3.862305-10.013184
	c-0.608826-2.386597-2.914917-4.461426-8.080078-4.461426c-2.498047,0-5.574219,0.476074-7.837891,1.722168l-3.958008-10.628418
	c4.623169-2.664062,9.039246-4.71875,16.326172-4.71875C58.144531,22.836853,67.427795,28.510071,66.904419,39.271545z"/>
</svg>
