<?xml version="1.0" encoding="utf-8"?>
<!DOCTYPE svg PUBLIC "-//W3C//DTD SVG 1.1//EN" "http://www.w3.org/Graphics/SVG/1.1/DTD/svg11.dtd">
<svg version="1.1" xmlns="http://www.w3.org/2000/svg" xmlns:xlink="http://www.w3.org/1999/xlink" x="0px" y="0px"
	 viewBox="0 0 100 100" enable-background="new 0 0 100 100" xml:space="preserve">
<g fill="#FFF">
	<path d="M49.977539,58.313477c-2.342773,0-4.675781-0.773438-6.624023-2.314453L25.549805,41.190796v20.512329
		c0,1.897461,1.416992,3.5,3.094727,3.5h42.710938c1.677734,0,3.094727-1.602539,3.094727-3.5V41.191101L56.713867,55.944336
		C54.714844,57.526367,52.34082,58.313477,49.977539,58.313477z"/>
	<path d="M52.304688,50.508301l18.886475-15.711426H28.809143l18.953552,15.766113
		C49.053711,51.581055,50.947266,51.581055,52.304688,50.508301z"/>
	<path d="M80,5H20C11.715759,5,5,11.715698,5,20v60c0,8.284241,6.715759,15,15,15h60c8.284302,0,15-6.715759,15-15V20
		C95,11.715698,88.284302,5,80,5z M81.450195,61.703125c0,5.790039-4.52832,10.5-10.094727,10.5H28.644531
		c-5.566406,0-10.094727-4.709961-10.094727-10.5v-23.40625c0-2.616211,0.936523-5.125,2.636719-7.064453
		c1.911133-2.182617,4.629883-3.435547,7.458008-3.435547h42.710938c5.566406,0,10.094727,4.710449,10.094727,10.5V61.703125z"/>
</g>
</svg>
