<?xml version="1.0" encoding="utf-8"?>
<!DOCTYPE svg PUBLIC "-//W3C//DTD SVG 1.1//EN" "http://www.w3.org/Graphics/SVG/1.1/DTD/svg11.dtd">
<svg version="1.1" xmlns="http://www.w3.org/2000/svg" xmlns:xlink="http://www.w3.org/1999/xlink" x="0px" y="0px"
	 viewBox="0 0 100 100" enable-background="new 0 0 100 100" xml:space="preserve">
<g fill="#FFF">
	<path d="M48.598694,34.949707h5.089844l-0.837891-5.76123h1.272461v-1.560059h-3.677734l0.682617,4.940918h-6.067383V20.306641
		l7.355469,1.200195V18.42627h-3.817383c-4.904297,0-6.005859,3.040527-6.005859,8.781738
		C42.592834,32.249512,44.610413,34.949707,48.598694,34.949707z"/>
	<path d="M59.521545,27.328125c0,4.681152,2.452148,7.621582,5.990234,7.621582s6.004883-2.92041,6.004883-7.621582v-7.20166
		h0.931641V18.42627h-3.398438v14.163086h-7.060547l0.015625-14.163086h-3.414062v1.700195h0.930664V27.328125z"/>

		<rect x="25.183836" y="50.149963" transform="matrix(-1 -0.000346 0.000346 -1 97.636627 104.300636)" width="47.286991" height="3.983826"/>
	<path d="M68.785217,75.0896c-2.366394,0.185852-4.708435,0.579712-6.980713,1.171021
		c-1.293518-1.021667-3.114624-1.52948-4.957092-1.316711c-0.936829,0.109192-1.872864,0.391846-2.80127,0.842468
		c-1.449585-1.861816-3.946289-2.933228-6.119202-3.324097c-2.026733-0.363953-3.979919-0.317139-5.701233,0.136719
		c-0.747192-0.667053-1.746948-1.175964-2.953979-1.497498c-3.478027-0.926941-7.363525-0.159912-10.140015,2.006165
		c-2.776428,2.165039-4.27771,5.59906-3.918945,8.960266c0.106079,0.987,0.954285,1.737,1.977783,1.814758
		c0.128601,0.009766,0.259216,0.008789,0.392883-0.002869c1.189514-0.110779,2.058899-1.101929,1.940308-2.213684
		c-0.216064-2.014832,0.720581-4.156128,2.384949-5.454529c1.650635-1.287476,4.044861-1.768494,6.124634-1.23407
		c-0.795715,0.81543-1.386169,1.771301-1.704041,2.802368c-0.167297,0.544067-0.083435,1.128113,0.231995,1.611755
		c0.315552,0.482727,0.83252,0.821167,1.427734,0.930786c1.830933,0.34613,3.768738-0.376648,4.853149-1.777466
		c0.487549-0.627808,0.78009-1.367493,0.871826-2.128418c1.233154-0.258057,2.489197-0.145813,3.393799,0.017944
		c1.785339,0.320862,3.667664,1.331787,3.813538,2.641785c0.083008,0.752319,0.609253,1.398682,1.362915,1.674866
		c0.755615,0.27832,1.611511,0.13623,2.219421-0.362488c1.033997-0.846863,2.003296-1.328125,2.881226-1.430847
		c0.77478-0.08783,1.564026,0.182129,1.845398,0.630554c0.512329,0.817688,1.560486,1.197449,2.531311,0.905579
		c2.384766-0.713562,4.869629-1.175781,7.387756-1.373962c1.192322-0.09375,2.076477-1.071838,1.976074-2.185181
		C71.024963,75.822449,69.985901,74.997437,68.785217,75.0896z"/>
	<path d="M80,5H20C11.715759,5,5,11.715698,5,20v59.999939C5,88.284241,11.715759,95,20,95h60c8.284302,0,15-6.715759,15-15V20
		C95,11.715698,88.284302,5,80,5z M78.828979,86.616516l-59.653503-0.021118l0.029602-72.825867l59.653503,0.021057
		L78.828979,86.616516z"/>
	<rect x="25.157957" y="60.82724" width="47.28693" height="3.934693"/>
	<path d="M33.269531,34.949707c1.458984,0,3.646484-0.799805,3.972656-3.000488l-7.510742,0.620117V20.306641l7.355469,1.200195
		V18.42627h-3.817383c-4.904297,0-6.005859,3.040527-6.005859,8.781738C27.263672,32.249512,29.28125,34.949707,33.269531,34.949707
		z"/>
	<rect x="25.161436" y="39.545563" width="47.287113" height="3.896302"/>
</g>
<path fill="#FFF" d="M83.544922,38.645813c-2.121094-1.207031-4.050781-1.888672-5.738281-2.026367
	c-2.783203-0.219727-5.112305,0.972656-6.383789,3.208008L58.480469,62.563782
	c-0.832031,1.460938-1.225586,3.109375-1.139648,4.766602l0.291016,5.652344c0.119141,2.28418,1.367188,4.317383,3.334961,5.436523
	c0.842773,0.480469,1.759766,0.763672,2.729492,0.842773c0.178711,0.013672,0.356445,0.021484,0.535156,0.021484
	c1.078125,0,2.155273-0.267578,3.116211-0.772461l5.009766-2.636719c1.469727-0.774414,2.68457-1.955078,3.514648-3.412109
	l12.953125-22.756836l0.248047-0.492188C89.868164,47.434875,90.919922,42.846008,83.544922,38.645813z"/>
<g fill="#68bda7">
		<path d="M63.970215,75.874725c-0.46838-0.038094-0.913731-0.175468-1.321484-0.407425
			c-0.958443-0.545029-1.564518-1.539909-1.622887-2.660896l-0.291649-5.650665
			c-0.05254-1.008804,0.189434-2.01564,0.69949-2.911835l12.941994-22.73642c0.436157-0.766304,1.337402-1.64872,3.156746-1.500759
			c1.187553,0.096581,2.644608,0.632458,4.331924,1.592571c4.779358,2.721008,4.624413,5.069752,4.107124,6.227928
			l-0.090256,0.179577L72.91848,70.781998c-0.508018,0.892838-1.249306,1.61454-2.143539,2.086296l-5.009209,2.636116
			C65.207146,75.796753,64.587151,75.924896,63.970215,75.874725z M65.799431,66.729401
			c-0.038963,0.068077-0.050339,0.132248-0.048744,0.166679l0.148117,2.862022l2.534492-1.334099
			c0.030258-0.015129,0.081429-0.060226,0.121338-0.129112l12.203094-21.43837
			c-0.302254-0.231293-0.744141-0.530235-1.378876-0.891483c-0.585129-0.333027-1.034714-0.548153-1.36911-0.687061
			L65.799431,66.729401z"/>
</g>
</svg>
