<?xml version="1.0" encoding="utf-8"?>
<!-- Generator: Adobe Illustrator 21.0.0, SVG Export Plug-In . SVG Version: 6.00 Build 0)  -->
<svg version="1.1" xmlns="http://www.w3.org/2000/svg" xmlns:xlink="http://www.w3.org/1999/xlink" x="0px" y="0px"
	 viewBox="0 0 223.714447 125.801872" enable-background="new 0 0 223.714447 125.801872" xml:space="preserve">
<g id="background">
	<g>
		<path fill="#ACDDEA" d="M14.471584,87.427788l97.385635-48.76841l117.47757,57.719017v169.855865H-5.105822V87.626221
			L14.471584,87.427788z M14.471584,87.427788"/>
	</g>
	<g>
		<g>
			<rect x="-5.105822" y="-0.612133" fill="#F4FBFB" width="34.265911" height="10.445586"/>
		</g>
		<g>
			<path fill="#F4FBFB" d="M-12.189987,97.985123l26.661572-10.557335l97.385635-48.76841V-135.97403L14.408336-90.195206
				l-26.598324-0.068039V97.985123z"/>
		</g>
		<g>
			<path fill="#CDDCE8" d="M111.857224,38.659378v-181.758469h126.610092v244.727356L111.857224,38.659378z M111.857224,38.659378"
				/>
		</g>
	</g>
	<g>
		<polygon fill="#ACDDEA" points="-11.090661,-94.849762 12.760235,-94.781738 97.686401,-135.97403 111.857224,-135.97403
			14.408336,-90.195206 -12.189987,-90.263245 		"/>
	</g>
</g>
<g id="etagere" display="none">
	<g display="inline">
		<path fill="#F49C52" d="M179.348892,126.693275V43.459808l52.333954,14.481735v93.336151L179.348892,126.693275z
			 M179.348892,126.693275"/>
	</g>
	<g display="inline">
		<g>
			<path fill="#F49C52" d="M191.224777,126.693275V39.895714l-17.890381,4.468361v90.292404L191.224777,126.693275z
				 M191.224777,126.693275"/>
		</g>
		<g>
			<g>
				<rect x="171.683411" y="43.133114" fill="#F1D7A8" width="5.684959" height="91.523415"/>
			</g>
			<g>
				<path fill="#F9E94D" d="M247.730255,120.541977l-52.33342-24.438568l-19.372055,9.228996l52.333969,24.43856
					L247.730255,120.541977z M247.730255,120.541977"/>
			</g>
			<g>

					<rect x="197.850433" y="89.576279" transform="matrix(0.423105 -0.906081 0.906081 0.423105 8.448397 250.180359)" fill="#F1D7A8" width="5.684864" height="57.758614"/>
			</g>
		</g>
		<g>
			<path fill="#D62B3F" d="M180.14975,105.299713l-2.170044-0.895195V89.543327l2.170044,0.895203V105.299713z
				 M180.14975,105.299713"/>
		</g>
		<g>
			<path fill="#ED696B" d="M198.040146,97.336517v-14.8619L180.14975,90.43853v14.861183L198.040146,97.336517z
				 M198.040146,97.336517"/>
		</g>
		<g>
			<path fill="#9D4258" d="M195.870102,81.579414l2.170044,0.895203L180.14975,90.43853l-2.170044-0.895203L195.870102,81.579414z
				 M195.870102,81.579414"/>
		</g>
		<g>
			<path fill="#2FBBED" d="M182.802155,105.439178l-1.580963-0.668159v-12.28466l1.580963,0.668335V105.439178z
				 M182.802155,105.439178"/>
		</g>
		<g>
			<path fill="#95C8CF" d="M200.692551,97.475975V85.19149l-17.890396,7.963203v12.284485L200.692551,97.475975z
				 M200.692551,97.475975"/>
		</g>
		<g>
			<path fill="#0E2857" d="M199.111771,84.523148l1.58078,0.668343l-17.890396,7.963203l-1.580963-0.668335L199.111771,84.523148z
				 M199.111771,84.523148"/>
		</g>
		<g>
			<polyline fill="#F1D7A8" points="172.997025,40.767281 172.997025,44.364075 175.672333,43.936649 177.507858,40.767281 			"/>
		</g>
		<g>
			<path fill="#B4EFB7" d="M193.843765,104.483032V89.282349l-8.551758,3.840363v15.199982L193.843765,104.483032z
				 M193.843765,104.483032"/>
		</g>
		<g>
			<path fill="#62BDA7" d="M185.292007,108.322693l-1.854919-0.800873V92.321144l1.854919,0.801567V108.322693z
				 M185.292007,108.322693"/>
		</g>
		<g>
			<path fill="#104855" d="M191.988876,88.481476l1.854889,0.800873l-8.551758,3.840363l-1.854919-0.801567L191.988876,88.481476z
				 M191.988876,88.481476"/>
		</g>
		<g>
			<path fill="#F9E94D" d="M189.376099,107.895782l-1.634247-0.67437V96.027725l1.634247,0.674561V107.895782z
				 M189.376099,107.895782"/>
		</g>
		<g>
			<path fill="#F1D7A8" d="M202.850693,101.89798V90.7043l-13.474594,5.997986v11.193497L202.850693,101.89798z
				 M202.850693,101.89798"/>
		</g>
		<g>
			<path fill="#104855" d="M201.216446,90.029747l1.634247,0.674553l-13.474594,5.997986l-1.634247-0.674561L201.216446,90.029747z
				 M201.216446,90.029747"/>
		</g>
		<g>
			<path fill="#D62B3F" d="M190.924362,110.14579l-1.397781-0.596924V94.34906l1.397781,0.596748V110.14579z M190.924362,110.14579"
				/>
		</g>
		<g>
			<path fill="#9D4258" d="M198.471863,90.299774l1.397598,0.596039l-8.945099,4.049995l-1.397781-0.596748L198.471863,90.299774z
				 M198.471863,90.299774"/>
		</g>
		<g>
			<path fill="#ED696B" d="M199.869461,106.096497V90.895813l-8.945099,4.049995v15.199982L199.869461,106.096497z
				 M199.869461,106.096497"/>
		</g>
		<g>
			<path fill="#D62B3F" d="M194.48848,110.907753l-1.397598-0.596924V95.111023l1.397598,0.596748V110.907753z
				 M194.48848,110.907753"/>
		</g>
		<g>
			<path fill="#9D4258" d="M202.035965,91.061035l1.397797,0.596741l-8.945282,4.049995l-1.397598-0.596748L202.035965,91.061035z
				 M202.035965,91.061035"/>
		</g>
		<g>
			<path fill="#ED696B" d="M203.433762,106.858459V91.657776l-8.945282,4.049995v15.199982L203.433762,106.858459z
				 M203.433762,106.858459"/>
		</g>
		<g>
			<path fill="#2FBBED" d="M197.127716,113.467758l-1.580948-0.668343v-12.284485l1.580948,0.667458V113.467758z
				 M197.127716,113.467758"/>
		</g>
		<g>
			<path fill="#95C8CF" d="M215.018097,105.503845v-12.28466l-17.890381,7.963203v12.28537L215.018097,105.503845z
				 M215.018097,105.503845"/>
		</g>
		<g>
			<path fill="#0E2857" d="M213.437164,92.550842l1.580933,0.668343l-17.890381,7.963203l-1.580948-0.667458L213.437164,92.550842z
				 M213.437164,92.550842"/>
		</g>
		<g>
			<path fill="#B4EFB7" d="M209.890259,109.376717V98.016571l-8.552292,3.840378v11.360313L209.890259,109.376717z
				 M209.890259,109.376717"/>
		</g>
		<g>
			<path fill="#62BDA7" d="M201.337967,113.217262l-1.855072-0.801582v-11.360138l1.855072,0.801407V113.217262z
				 M201.337967,113.217262"/>
		</g>
		<g>
			<path fill="#104855" d="M208.034668,97.215706l1.855591,0.800865l-8.552292,3.840378l-1.855072-0.801407L208.034668,97.215706z
				 M208.034668,97.215706"/>
		</g>
		<g>
			<path fill="#ED696B" d="M211.745346,110.178299V98.818153l-8.551773,3.84037v11.359428L211.745346,110.178299z
				 M211.745346,110.178299"/>
		</g>
		<g>
			<path fill="#D62B3F" d="M203.193573,114.017952l-1.855606-0.80069v-11.360313l1.855606,0.801575V114.017952z
				 M203.193573,114.017952"/>
		</g>
		<g>
			<path fill="#9D4258" d="M209.890259,98.016571l1.855087,0.801582l-8.551773,3.84037l-1.855606-0.801575L209.890259,98.016571z
				 M209.890259,98.016571"/>
		</g>
		<g>
			<path fill="#95C8CF" d="M213.60025,110.979164V99.619026l-8.551605,3.840363v11.360146L213.60025,110.979164z
				 M213.60025,110.979164"/>
		</g>
		<g>
			<path fill="#2FBBED" d="M205.048645,114.819534l-1.855072-0.801582v-11.359428l1.855072,0.800865V114.819534z
				 M205.048645,114.819534"/>
		</g>
		<g>
			<path fill="#0E2857" d="M211.745346,98.818153l1.854904,0.800873l-8.551605,3.840363l-1.855072-0.800865L211.745346,98.818153z
				 M211.745346,98.818153"/>
		</g>
		<g>
			<path fill="#F1D7A8" d="M215.455322,111.780746v-11.360321l-8.551773,3.840538v11.359436L215.455322,111.780746z
				 M215.455322,111.780746"/>
		</g>
		<g>
			<path fill="#F9E94D" d="M206.903549,115.620399l-1.854904-0.800865v-11.360146l1.854904,0.801575V115.620399z
				 M206.903549,115.620399"/>
		</g>
		<g>
			<path fill="#104855" d="M213.60025,99.619026l1.855072,0.801399l-8.551773,3.840538l-1.854904-0.801575L213.60025,99.619026z
				 M213.60025,99.619026"/>
		</g>
		<g>
			<path fill="#D62B3F" d="M207.557281,118.32058l-1.580933-0.668343v-11.407219l1.580933,0.668159V118.32058z
				 M207.557281,118.32058"/>
		</g>
		<g>
			<path fill="#ED696B" d="M225.447693,110.357376V98.949265l-17.890411,7.963913v11.407402L225.447693,110.357376z
				 M225.447693,110.357376"/>
		</g>
		<g>
			<path fill="#9D4258" d="M223.86673,98.28093l1.580963,0.668335l-17.890411,7.963913l-1.580933-0.668159L223.86673,98.28093z
				 M223.86673,98.28093"/>
		</g>
		<g>
			<path fill="#95C8CF" d="M222.827972,116.311653v-11.359612l-8.551743,3.839661v11.360321L222.827972,116.311653z
				 M222.827972,116.311653"/>
		</g>
		<g>
			<path fill="#2FBBED" d="M214.27623,120.152023l-3.492004-1.492126v-11.360146l3.492004,1.491951V120.152023z
				 M214.27623,120.152023"/>
		</g>
		<g>
			<g>
				<path fill="#0E2857" d="M219.335846,103.459389l3.492126,1.492653l-8.551743,3.839661l-3.492004-1.491951L219.335846,103.459389
					z M219.335846,103.459389"/>
			</g>
			<g>
				<path fill="#F9E94D" d="M247.629517,100.044327L195.29628,75.605759l-19.623947,8.826431l52.333237,24.438744
					L247.629517,100.044327z M247.629517,100.044327"/>
			</g>
			<g>

					<rect x="197.850433" y="68.541656" transform="matrix(0.423116 -0.906075 0.906075 0.423116 27.505587 238.043564)" fill="#F1D7A8" width="5.684864" height="57.758945"/>
			</g>
		</g>
		<g>
			<path fill="#2FBBED" d="M183.364243,86.292068l-2.169327-0.89592V70.534966l2.169327,0.895203V86.292068z M183.364243,86.292068"
				/>
		</g>
		<g>
			<path fill="#95C8CF" d="M201.255356,78.328148V63.466957l-17.891113,7.963211v14.8619L201.255356,78.328148z
				 M201.255356,78.328148"/>
		</g>
		<g>
			<path fill="#0E2857" d="M199.085297,62.571583l2.170059,0.895374l-17.891113,7.963211l-2.169327-0.895203L199.085297,62.571583z
				 M199.085297,62.571583"/>
		</g>
		<g>
			<path fill="#F9E94D" d="M186.515488,88.155304l-1.634232-0.674553V76.287247l1.634232,0.674385V88.155304z M186.515488,88.155304
				"/>
		</g>
		<g>
			<path fill="#F1D7A8" d="M199.990265,82.157494V70.963821l-13.474777,5.99781v11.193672L199.990265,82.157494z
				 M199.990265,82.157494"/>
		</g>
		<g>
			<path fill="#104855" d="M198.356033,70.289261l1.634232,0.674561l-13.474777,5.99781l-1.634232-0.674385L198.356033,70.289261z
				 M198.356033,70.289261"/>
		</g>
		<g>
			<path fill="#B4EFB7" d="M198.860565,85.47805V70.278069l-8.551788,3.839836v15.200508L198.860565,85.47805z M198.860565,85.47805
				"/>
		</g>
		<g>
			<path fill="#62BDA7" d="M190.308777,89.318413l-1.855057-0.801575V73.317039l1.855057,0.800865V89.318413z M190.308777,89.318413
				"/>
		</g>
		<g>
			<path fill="#104855" d="M197.005493,69.476669l1.855072,0.801399l-8.551788,3.839836l-1.855057-0.800865L197.005493,69.476669z
				 M197.005493,69.476669"/>
		</g>
		<g>
			<path fill="#2FBBED" d="M195.333054,88.841057l-2.170074-0.895203V73.083771l2.170074,0.89521V88.841057z M195.333054,88.841057"
				/>
		</g>
		<g>
			<path fill="#95C8CF" d="M213.22345,80.877678V66.01577l-17.890396,7.963211v14.862076L213.22345,80.877678z M213.22345,80.877678
				"/>
		</g>
		<g>
			<path fill="#0E2857" d="M211.053391,65.120567l2.170059,0.895203l-17.890396,7.963211l-2.170074-0.89521L211.053391,65.120567z
				 M211.053391,65.120567"/>
		</g>
		<g>
			<path fill="#ED696B" d="M206.848633,88.529449V73.329468l-8.945084,4.049294v15.200684L206.848633,88.529449z
				 M206.848633,88.529449"/>
		</g>
		<g>
			<path fill="#9D4258" d="M205.058945,72.629333l1.789688,0.700134l-8.945084,4.049294l-1.789703-0.700134L205.058945,72.629333z
				 M205.058945,72.629333"/>
		</g>
		<g>
			<path fill="#D62B3F" d="M197.903549,92.579445l-1.789703-0.701019V76.678627l1.789703,0.700134V92.579445z M197.903549,92.579445
				"/>
		</g>
		<g>
			<path fill="#F9E94D" d="M205.216522,94.471832l-1.634247-0.673851v-11.19368l1.634247,0.673851V94.471832z M205.216522,94.471832
				"/>
		</g>
		<g>
			<path fill="#F1D7A8" d="M218.691818,88.473839V77.280167l-13.475296,5.997986v11.19368L218.691818,88.473839z
				 M218.691818,88.473839"/>
		</g>
		<g>
			<g>
				<path fill="#104855" d="M217.057571,76.606323l1.634247,0.673843l-13.475296,5.997986l-1.634247-0.673851L217.057571,76.606323z
					 M217.057571,76.606323"/>
			</g>
			<g>
				<path fill="#F9E94D" d="M247.077194,78.947815l-52.333252-24.438564l-19.071609,8.877052l52.333237,24.43874
					L247.077194,78.947815z M247.077194,78.947815"/>
			</g>
			<g>

					<rect x="197.850418" y="47.507645" transform="matrix(0.423115 -0.906076 0.906076 0.423115 46.56422 225.909576)" fill="#F1D7A8" width="5.684904" height="57.758888"/>
			</g>
		</g>
		<g>
			<path fill="#B4EFB7" d="M202.072205,56.249737V41.049042l-17.890564,7.963207v15.200687L202.072205,56.249737z
				 M202.072205,56.249737"/>
		</g>
		<g>
			<path fill="#104855" d="M197.732803,39.102482l4.339401,1.94656l-17.890564,7.963207l-4.33992-1.946571L197.732803,39.102482z
				 M197.732803,39.102482"/>
		</g>
		<g>
			<path fill="#62BDA7" d="M184.181641,64.212936l-4.33992-1.946571V47.065678l4.33992,1.946571V64.212936z M184.181641,64.212936"
				/>
		</g>
		<g>
			<path fill="#95C8CF" d="M208.258865,57.307316V42.106621l-17.890366,7.9632v15.200695L208.258865,57.307316z
				 M208.258865,57.307316"/>
		</g>
		<g>
			<path fill="#104855" d="M203.919464,40.160061l4.339401,1.94656l-17.890366,7.9632l-4.339432-1.946571L203.919464,40.160061z
				 M203.919464,40.160061"/>
		</g>
		<g>
			<path fill="#62BDA7" d="M190.3685,65.270515l-4.339432-1.946568V48.123249l4.339432,1.946571V65.270515z M190.3685,65.270515"/>
		</g>
		<g>
			<path fill="#F9E94D" d="M195.560623,69.820786l-1.634262-0.674553V57.953266l1.634262,0.67384V69.820786z M195.560623,69.820786"
				/>
		</g>
		<g>
			<path fill="#F1D7A8" d="M209.036102,63.822807V52.629303l-13.475479,5.997803v11.19368L209.036102,63.822807z
				 M209.036102,63.822807"/>
		</g>
		<g>
			<path fill="#104855" d="M207.401855,51.955463l1.634247,0.67384l-13.475479,5.997803l-1.634262-0.67384L207.401855,51.955463z
				 M207.401855,51.955463"/>
		</g>
		<g>
			<path fill="#D62B3F" d="M200.099869,69.181046l-1.634232-0.674553V57.313519l1.634232,0.673862V69.181046z M200.099869,69.181046
				"/>
		</g>
		<g>
			<path fill="#ED696B" d="M213.574661,63.183064V51.989391l-13.474792,5.99799v11.193665L213.574661,63.183064z
				 M213.574661,63.183064"/>
		</g>
		<g>
			<path fill="#9D4258" d="M211.940231,51.31554l1.63443,0.673851l-13.474792,5.99799l-1.634232-0.673862L211.940231,51.31554z
				 M211.940231,51.31554"/>
		</g>
		<g>
			<g>

					<rect x="197.850433" y="26.472961" transform="matrix(0.423114 -0.906077 0.906077 0.423114 65.623466 213.775162)" fill="#F1D7A8" width="5.684864" height="57.758869"/>
			</g>
			<g>
				<path fill="#F1D7A8" d="M245.567123,59.074097l-54.678986-26.270016l-17.891113,7.9632l55.373657,25.961243
					L245.567123,59.074097z M245.567123,59.074097"/>
			</g>
			<g>
				<rect x="224.017365" y="65.270493" fill="#F1D7A8" width="5.684959" height="101.100906"/>
			</g>
			<g>
				<path fill="#F49C52" d="M246.261047,149.057724V58.765312l-17.890366,7.963211v90.292397L246.261047,149.057724z
					 M246.261047,149.057724"/>
			</g>
			<g>
				<polyline fill="#F1D7A8" points="176.951279,39.007439 171.643112,41.346794 171.643112,44.47369 174.296921,45.729191
					177.138702,42.566036 178.062317,40.565292 				"/>
			</g>
		</g>
		<g>
			<path fill="#FFFFFF" d="M148.731308,105.436508h8.604355c1.603882,0,2.904312-1.300613,2.904312-2.904305v-6.692612
				c0-1.604401-1.30043-2.904129-2.904312-2.904129h-8.604355c-1.603882,0-2.904297,1.299728-2.904297,2.904129v6.692612
				C145.827011,104.135895,147.127426,105.436508,148.731308,105.436508L148.731308,105.436508z M148.731308,105.436508"/>
		</g>
		<g>
			<path fill="#FFFFFF" d="M156.373138,104.721634c0.562103,1.329742,1.334549,2.439369,2.228317,3.202759
				c-2.545441-0.502586-4.364273-1.356041-5.650848-3.018181L156.373138,104.721634z M156.373138,104.721634"/>
		</g>
		<g>
			<path fill="#D62B3F" d="M151.128937,95.770836c1.052078,0,1.904816,0.915459,1.904816,2.044456
				c0-1.128998,0.852219-2.044456,1.904282-2.044456c1.052078,0,1.904999,0.915459,1.904999,2.044456
				c0,1.745277-1.705841,4.78495-3.80928,4.78495c-2.103973,0-3.809814-3.039673-3.809814-4.78495
				C149.223938,96.686295,150.076874,95.770836,151.128937,95.770836L151.128937,95.770836z M151.128937,95.770836"/>
		</g>
		<g>
			<path fill="#FFFFFF" d="M172.045685,95.942986l15.216492-5.60643l-14.349716,7.55442L172.045685,95.942986z
				 M172.045685,95.942986"/>
		</g>
		<g>
			<path fill="#FFFFFF" d="M185.432861,105.557846l15.216705-5.606438l-14.349228,7.554428L185.432861,105.557846z
				 M185.432861,105.557846"/>
		</g>
		<g>
			<path fill="#FFFFFF" d="M188.886826,123.061829l15.216507-5.606606l-14.349716,7.553886L188.886826,123.061829z
				 M188.886826,123.061829"/>
		</g>
		<g>
			<path fill="#F1D7A8" d="M176.588318,103.320641l15.21669-5.606613l-14.349915,7.55442L176.588318,103.320641z
				 M176.588318,103.320641"/>
		</g>
		<g>
			<path fill="#F9E94D" d="M180.655014,115.501724l15.216507-5.606613l-14.349731,7.553894L180.655014,115.501724z
				 M180.655014,115.501724"/>
		</g>
		<g>
			<path fill="#D62B3F" d="M166.21698,117.337967l11.174347,2.548996v-18.358147l-10.860596-2.088875
				c-0.162369-0.031265-0.313751,0.092918-0.313751,0.25885V117.337967z M166.21698,117.337967"/>
		</g>
		<g>
			<path fill="#D62B3F" d="M185.939529,129.695999l-8.548203-7.826408v-20.340775l8.820908,7.811127
				c0.172867,0.152786,0.271469,0.3713,0.271469,0.601715v19.515038
				C186.483704,129.739166,186.147751,129.886978,185.939529,129.695999L185.939529,129.695999z M185.939529,129.695999"/>
		</g>
		<g>
			<path fill="#FFFFFF" d="M177.505722,102.692459l-10.827179-2.180367l-1.844589,0.988113v17.759277l10.644028,2.448975
				l7.85643,7.063194l2.157608-1.016533v-17.759987L177.505722,102.692459z M177.505722,102.692459"/>
		</g>
		<g>
			<path fill="#E2E5ED" d="M166.226059,105.214439l7.859818,1.80835v-0.812592l-7.859818-1.808525V105.214439z
				 M166.226059,105.214439"/>
		</g>
		<g>
			<path fill="#E2E5ED" d="M166.226059,106.755066l7.859818,1.80835v-0.812592l-7.859818-1.808533V106.755066z
				 M166.226059,106.755066"/>
		</g>
		<g>
			<path fill="#E2E5ED" d="M166.226059,108.295509l7.859818,1.808525v-0.812592l-7.859818-1.808525V108.295509z
				 M166.226059,108.295509"/>
		</g>
		<g>
			<path fill="#E2E5ED" d="M166.226059,109.836136l7.859818,1.808525v-0.812592l-7.859818-1.808525V109.836136z
				 M166.226059,109.836136"/>
		</g>
		<g>
			<path fill="#E2E5ED" d="M166.226059,111.376755l7.859818,1.808533v-0.812599l-7.859818-1.807816V111.376755z
				 M166.226059,111.376755"/>
		</g>
		<g>
			<path fill="#E2E5ED" d="M166.226059,112.918091l7.859818,1.807816v-0.812592l-7.859818-1.807816V112.918091z
				 M166.226059,112.918091"/>
		</g>
		<g>
			<path fill="#E2E5ED" d="M166.226059,114.458717l7.859818,1.807816v-0.812775l-7.859818-1.807632V114.458717z
				 M166.226059,114.458717"/>
		</g>
		<g>
			<path fill="#E2E5ED" d="M166.226059,115.999336l7.859818,1.807816v-0.812767l-7.859818-1.80764V115.999336z
				 M166.226059,115.999336"/>
		</g>
		<g>
			<path fill="#E2E5ED" d="M182.505829,113.659981l-6.199265-5.573929v-0.804947l6.199265,5.573212V113.659981z
				 M182.505829,113.659981"/>
		</g>
		<g>
			<path fill="#E2E5ED" d="M182.505829,115.186745l-6.199265-5.573921v-0.80513l6.199265,5.573921V115.186745z
				 M182.505829,115.186745"/>
		</g>
		<g>
			<path fill="#E2E5ED" d="M182.505829,116.713333l-6.199265-5.573921v-0.804955l6.199265,5.573921V116.713333z
				 M182.505829,116.713333"/>
		</g>
		<g>
			<path fill="#E2E5ED" d="M182.505829,118.240097l-6.199265-5.573212v-0.805664l6.199265,5.573921V118.240097z
				 M182.505829,118.240097"/>
		</g>
		<g>
			<path fill="#E2E5ED" d="M182.505829,119.767578l-6.199265-5.573929v-0.80513l6.199265,5.573395V119.767578z
				 M182.505829,119.767578"/>
		</g>
		<g>
			<path fill="#E2E5ED" d="M182.505829,121.294167l-6.199265-5.573929v-0.804947l6.199265,5.573921V121.294167z
				 M182.505829,121.294167"/>
		</g>
		<g>
			<path fill="#E2E5ED" d="M182.505829,122.82093l-6.199265-5.573212v-0.805664l6.199265,5.573921V122.82093z M182.505829,122.82093
				"/>
		</g>
		<g>
			<path fill="#E2E5ED" d="M182.505829,124.347694l-6.199265-5.573212v-0.805664l6.199265,5.573921V124.347694z
				 M182.505829,124.347694"/>
		</g>
	</g>
	<g display="inline">
		<path fill="#ACDDEA" d="M159.325058,124.347694v32.957634l52.333939,14.481735v-22.85495L159.325058,124.347694z
			 M159.325058,124.347694"/>
	</g>
</g>
<g id="etagere2">
	<g>
		<g>
			<path fill="#F49C52" d="M179.348892,105.23085V21.997383l52.333954,14.481739v93.336136L179.348892,105.23085z
				 M179.348892,105.23085"/>
		</g>
		<g>
			<g>
				<path fill="#F49C52" d="M191.224777,105.23085V18.43329l-17.890381,4.468361v90.292404L191.224777,105.23085z
					 M191.224777,105.23085"/>
			</g>
			<g>
				<g>
					<rect x="171.683411" y="21.670689" fill="#F1D7A8" width="5.684959" height="91.523415"/>
				</g>
				<g>
					<path fill="#F9E94D" d="M247.730255,99.079552l-52.33342-24.438568L176.02478,83.86998l52.333969,24.43856
						L247.730255,99.079552z M247.730255,99.079552"/>
				</g>
				<g>

						<rect x="197.850433" y="68.113853" transform="matrix(0.423105 -0.906081 0.906081 0.423105 27.895084 237.798798)" fill="#F1D7A8" width="5.684864" height="57.758614"/>
				</g>
			</g>
			<g>
				<path fill="#D62B3F" d="M180.14975,83.837288l-2.170044-0.895195V68.080902l2.170044,0.895203V83.837288z M180.14975,83.837288"
					/>
			</g>
			<g>
				<path fill="#ED696B" d="M198.040146,75.874092v-14.8619l-17.890396,7.963913v14.861183L198.040146,75.874092z
					 M198.040146,75.874092"/>
			</g>
			<g>
				<path fill="#9D4258" d="M195.870102,60.116989l2.170044,0.895203l-17.890396,7.963913l-2.170044-0.895203L195.870102,60.116989z
					 M195.870102,60.116989"/>
			</g>
			<g>
				<path fill="#2FBBED" d="M182.802155,83.976753l-1.580963-0.668159v-12.28466l1.580963,0.668335V83.976753z
					 M182.802155,83.976753"/>
			</g>
			<g>
				<path fill="#95C8CF" d="M200.692551,76.01355V63.729069l-17.890396,7.9632v12.284485L200.692551,76.01355z M200.692551,76.01355
					"/>
			</g>
			<g>
				<path fill="#0E2857" d="M199.111771,63.060726l1.58078,0.668343l-17.890396,7.9632l-1.580963-0.668335L199.111771,63.060726z
					 M199.111771,63.060726"/>
			</g>
			<g>
				<polyline fill="#F1D7A8" points="172.997025,19.304855 172.997025,22.901651 175.672333,22.474224 177.507858,19.304855 				"/>
			</g>
			<g>
				<path fill="#B4EFB7" d="M193.843765,83.020607V67.819923l-8.551758,3.840363v15.199982L193.843765,83.020607z
					 M193.843765,83.020607"/>
			</g>
			<g>
				<path fill="#62BDA7" d="M185.292007,86.860268l-1.854919-0.800865V70.858719l1.854919,0.801567V86.860268z
					 M185.292007,86.860268"/>
			</g>
			<g>
				<path fill="#104855" d="M191.988876,67.019058l1.854889,0.800865l-8.551758,3.840363l-1.854919-0.801567L191.988876,67.019058z
					 M191.988876,67.019058"/>
			</g>
			<g>
				<path fill="#F9E94D" d="M189.376099,86.433365l-1.634247-0.674377V74.5653l1.634247,0.674561V86.433365z M189.376099,86.433365"
					/>
			</g>
			<g>
				<path fill="#F1D7A8" d="M202.850693,80.435555v-11.19368l-13.474594,5.997986v11.193504L202.850693,80.435555z
					 M202.850693,80.435555"/>
			</g>
			<g>
				<path fill="#104855" d="M201.216446,68.567322l1.634247,0.674553l-13.474594,5.997986l-1.634247-0.674561L201.216446,68.567322z
					 M201.216446,68.567322"/>
			</g>
			<g>
				<path fill="#D62B3F" d="M190.924362,88.683365l-1.397781-0.596924V72.886635l1.397781,0.596748V88.683365z
					 M190.924362,88.683365"/>
			</g>
			<g>
				<path fill="#9D4258" d="M198.471863,68.837349l1.397598,0.596039l-8.945099,4.049995l-1.397781-0.596748L198.471863,68.837349z
					 M198.471863,68.837349"/>
			</g>
			<g>
				<path fill="#ED696B" d="M199.869461,84.634071V69.433388l-8.945099,4.049995v15.199982L199.869461,84.634071z
					 M199.869461,84.634071"/>
			</g>
			<g>
				<path fill="#D62B3F" d="M194.48848,89.445328l-1.397598-0.596924V73.648598l1.397598,0.596748V89.445328z M194.48848,89.445328"
					/>
			</g>
			<g>
				<path fill="#9D4258" d="M202.035965,69.59861l1.397797,0.596741l-8.945282,4.049995l-1.397598-0.596748L202.035965,69.59861z
					 M202.035965,69.59861"/>
			</g>
			<g>
				<path fill="#ED696B" d="M203.433762,85.396034V70.195351l-8.945282,4.049995v15.199982L203.433762,85.396034z
					 M203.433762,85.396034"/>
			</g>
			<g>
				<path fill="#2FBBED" d="M197.127716,92.005333l-1.580948-0.668343V79.052505l1.580948,0.667458V92.005333z
					 M197.127716,92.005333"/>
			</g>
			<g>
				<path fill="#95C8CF" d="M215.018097,84.04142V71.75676l-17.890381,7.963203v12.28537L215.018097,84.04142z M215.018097,84.04142
					"/>
			</g>
			<g>
				<path fill="#0E2857" d="M213.437164,71.088417l1.580933,0.668343l-17.890381,7.963203l-1.580948-0.667458L213.437164,71.088417z
					 M213.437164,71.088417"/>
			</g>
			<g>
				<path fill="#B4EFB7" d="M209.890259,87.914291V76.554146l-8.552292,3.840378v11.360313L209.890259,87.914291z
					 M209.890259,87.914291"/>
			</g>
			<g>
				<path fill="#62BDA7" d="M201.337967,91.754837l-1.855072-0.801582V79.593117l1.855072,0.801407V91.754837z
					 M201.337967,91.754837"/>
			</g>
			<g>
				<path fill="#104855" d="M208.034668,75.753281l1.855591,0.800865l-8.552292,3.840378l-1.855072-0.801407L208.034668,75.753281z
					 M208.034668,75.753281"/>
			</g>
			<g>
				<path fill="#ED696B" d="M211.745346,88.715874V77.355728l-8.551773,3.84037v11.359428L211.745346,88.715874z
					 M211.745346,88.715874"/>
			</g>
			<g>
				<path fill="#D62B3F" d="M203.193573,92.555527l-1.855606-0.80069V80.394524l1.855606,0.801575V92.555527z M203.193573,92.555527
					"/>
			</g>
			<g>
				<path fill="#9D4258" d="M209.890259,76.554146l1.855087,0.801582l-8.551773,3.84037l-1.855606-0.801575L209.890259,76.554146z
					 M209.890259,76.554146"/>
			</g>
			<g>
				<path fill="#95C8CF" d="M213.60025,89.516739V78.156601l-8.551605,3.840363v11.360146L213.60025,89.516739z
					 M213.60025,89.516739"/>
			</g>
			<g>
				<path fill="#2FBBED" d="M205.048645,93.357109l-1.855072-0.801582V81.196098l1.855072,0.800865V93.357109z
					 M205.048645,93.357109"/>
			</g>
			<g>
				<path fill="#0E2857" d="M211.745346,77.355728l1.854904,0.800873l-8.551605,3.840363l-1.855072-0.800865L211.745346,77.355728z
					 M211.745346,77.355728"/>
			</g>
			<g>
				<path fill="#F1D7A8" d="M215.455322,90.318321V78.958l-8.551773,3.840538v11.359436L215.455322,90.318321z
					 M215.455322,90.318321"/>
			</g>
			<g>
				<path fill="#F9E94D" d="M206.903549,94.157974l-1.854904-0.800865V81.996964l1.854904,0.801575V94.157974z
					 M206.903549,94.157974"/>
			</g>
			<g>
				<path fill="#104855" d="M213.60025,78.156601l1.855072,0.801399l-8.551773,3.840538l-1.854904-0.801575L213.60025,78.156601z
					 M213.60025,78.156601"/>
			</g>
			<g>
				<path fill="#D62B3F" d="M207.557281,96.858154l-1.580933-0.668343V84.782593l1.580933,0.668159V96.858154z
					 M207.557281,96.858154"/>
			</g>
			<g>
				<path fill="#ED696B" d="M225.447693,88.894951V77.486839l-17.890411,7.963913v11.407402L225.447693,88.894951z
					 M225.447693,88.894951"/>
			</g>
			<g>
				<path fill="#9D4258" d="M223.86673,76.818504l1.580963,0.668335l-17.890411,7.963913l-1.580933-0.668159L223.86673,76.818504z
					 M223.86673,76.818504"/>
			</g>
			<g>
				<path fill="#95C8CF" d="M222.827972,94.849228V83.489616l-8.551743,3.839661v11.360321L222.827972,94.849228z
					 M222.827972,94.849228"/>
			</g>
			<g>
				<path fill="#2FBBED" d="M214.27623,98.689598l-3.492004-1.492126V85.837334l3.492004,1.491943V98.689598z M214.27623,98.689598"
					/>
			</g>
			<g>
				<g>
					<path fill="#0E2857" d="M219.335846,81.996964l3.492126,1.492653l-8.551743,3.839661l-3.492004-1.491943L219.335846,81.996964z
						 M219.335846,81.996964"/>
				</g>
				<g>
					<path fill="#F9E94D" d="M247.629517,78.581902L195.29628,54.143337l-19.623947,8.826431l52.333237,24.43874
						L247.629517,78.581902z M247.629517,78.581902"/>
				</g>
				<g>

						<rect x="197.850433" y="47.079235" transform="matrix(0.423116 -0.906075 0.906075 0.423116 46.952164 225.662231)" fill="#F1D7A8" width="5.684864" height="57.758945"/>
				</g>
			</g>
			<g>
				<path fill="#2FBBED" d="M183.364243,64.829643l-2.169327-0.895924V49.072536l2.169327,0.895203V64.829643z
					 M183.364243,64.829643"/>
			</g>
			<g>
				<path fill="#95C8CF" d="M201.255356,56.865726V42.004532l-17.891113,7.963207v14.861904L201.255356,56.865726z
					 M201.255356,56.865726"/>
			</g>
			<g>
				<path fill="#0E2857" d="M199.085297,41.109158l2.170059,0.895374l-17.891113,7.963207l-2.169327-0.895203L199.085297,41.109158z
					 M199.085297,41.109158"/>
			</g>
			<g>
				<path fill="#F9E94D" d="M186.515488,66.692879l-1.634232-0.674553V54.824825l1.634232,0.674381V66.692879z
					 M186.515488,66.692879"/>
			</g>
			<g>
				<path fill="#F1D7A8" d="M199.990265,60.695072V49.501396l-13.474777,5.99781v11.193672L199.990265,60.695072z
					 M199.990265,60.695072"/>
			</g>
			<g>
				<path fill="#104855" d="M198.356033,48.826836l1.634232,0.674561l-13.474777,5.99781l-1.634232-0.674381L198.356033,48.826836z
					 M198.356033,48.826836"/>
			</g>
			<g>
				<path fill="#B4EFB7" d="M198.860565,64.015625V48.815647l-8.551788,3.839832v15.200508L198.860565,64.015625z
					 M198.860565,64.015625"/>
			</g>
			<g>
				<path fill="#62BDA7" d="M190.308777,67.855988l-1.855057-0.801575V51.854614l1.855057,0.800865V67.855988z
					 M190.308777,67.855988"/>
			</g>
			<g>
				<path fill="#104855" d="M197.005493,48.01424l1.855072,0.801407l-8.551788,3.839832l-1.855057-0.800865L197.005493,48.01424z
					 M197.005493,48.01424"/>
			</g>
			<g>
				<path fill="#2FBBED" d="M195.333054,67.378632l-2.170074-0.895203v-14.86208l2.170074,0.895203V67.378632z
					 M195.333054,67.378632"/>
			</g>
			<g>
				<path fill="#95C8CF" d="M213.22345,59.415253V44.553349l-17.890396,7.963203v14.86208L213.22345,59.415253z
					 M213.22345,59.415253"/>
			</g>
			<g>
				<path fill="#0E2857" d="M211.053391,43.658146l2.170059,0.895203l-17.890396,7.963203l-2.170074-0.895203L211.053391,43.658146z
					 M211.053391,43.658146"/>
			</g>
			<g>
				<path fill="#ED696B" d="M206.848633,67.067024V51.867046l-8.945084,4.049286V71.11702L206.848633,67.067024z
					 M206.848633,67.067024"/>
			</g>
			<g>
				<path fill="#9D4258" d="M205.058945,51.166912l1.789688,0.700134l-8.945084,4.049286l-1.789703-0.700134L205.058945,51.166912z
					 M205.058945,51.166912"/>
			</g>
			<g>
				<path fill="#D62B3F" d="M197.903549,71.11702L196.113846,70.416V55.216198l1.789703,0.700134V71.11702z M197.903549,71.11702"/>
			</g>
			<g>
				<path fill="#F9E94D" d="M205.216522,73.009407l-1.634247-0.673843V61.141876l1.634247,0.673851V73.009407z
					 M205.216522,73.009407"/>
			</g>
			<g>
				<path fill="#F1D7A8" d="M218.691818,67.011414V55.817741l-13.475296,5.997986v11.19368L218.691818,67.011414z
					 M218.691818,67.011414"/>
			</g>
			<g>
				<g>
					<path fill="#104855" d="M217.057571,55.143898l1.634247,0.673843l-13.475296,5.997986l-1.634247-0.673851L217.057571,55.143898
						z M217.057571,55.143898"/>
				</g>
				<g>
					<path fill="#F9E94D" d="M247.077194,57.485386l-52.333252-24.43856l-19.071609,8.877052l52.333237,24.43874
						L247.077194,57.485386z M247.077194,57.485386"/>
				</g>
				<g>

						<rect x="197.850418" y="26.045219" transform="matrix(0.423115 -0.906076 0.906076 0.423115 66.010811 213.528229)" fill="#F1D7A8" width="5.684904" height="57.758888"/>
				</g>
			</g>
			<g>
				<path fill="#B4EFB7" d="M202.072205,34.787312V19.586615l-17.890564,7.963211v15.200686L202.072205,34.787312z
					 M202.072205,34.787312"/>
			</g>
			<g>
				<path fill="#104855" d="M197.732803,17.640057l4.339401,1.946558l-17.890564,7.963211l-4.33992-1.946571L197.732803,17.640057z
					 M197.732803,17.640057"/>
			</g>
			<g>
				<path fill="#62BDA7" d="M184.181641,42.750511l-4.33992-1.946571V25.603254l4.33992,1.946571V42.750511z M184.181641,42.750511"
					/>
			</g>
			<g>
				<path fill="#95C8CF" d="M208.258865,35.844891V20.644196l-17.890366,7.9632V43.80809L208.258865,35.844891z
					 M208.258865,35.844891"/>
			</g>
			<g>
				<path fill="#104855" d="M203.919464,18.697636l4.339401,1.94656l-17.890366,7.9632l-4.339432-1.946571L203.919464,18.697636z
					 M203.919464,18.697636"/>
			</g>
			<g>
				<path fill="#62BDA7" d="M190.3685,43.80809l-4.339432-1.946564V26.660824l4.339432,1.946571V43.80809z M190.3685,43.80809"/>
			</g>
			<g>
				<path fill="#F9E94D" d="M195.560623,48.35836l-1.634262-0.674549v-11.19297l1.634262,0.67384V48.35836z M195.560623,48.35836"/>
			</g>
			<g>
				<path fill="#F1D7A8" d="M209.036102,42.360382V31.166876l-13.475479,5.997805v11.19368L209.036102,42.360382z
					 M209.036102,42.360382"/>
			</g>
			<g>
				<path fill="#104855" d="M207.401855,30.493036l1.634247,0.67384l-13.475479,5.997805l-1.634262-0.67384L207.401855,30.493036z
					 M207.401855,30.493036"/>
			</g>
			<g>
				<path fill="#D62B3F" d="M200.099869,47.718624l-1.634232-0.674557V35.851093l1.634232,0.673862V47.718624z
					 M200.099869,47.718624"/>
			</g>
			<g>
				<path fill="#ED696B" d="M213.574661,41.720638V30.526966l-13.474792,5.99799v11.193668L213.574661,41.720638z
					 M213.574661,41.720638"/>
			</g>
			<g>
				<path fill="#9D4258" d="M211.940231,29.853115l1.63443,0.673851l-13.474792,5.99799l-1.634232-0.673862L211.940231,29.853115z
					 M211.940231,29.853115"/>
			</g>
			<g>
				<g>

						<rect x="197.850433" y="5.010536" transform="matrix(0.423114 -0.906077 0.906077 0.423114 85.070068 201.393784)" fill="#F1D7A8" width="5.684864" height="57.758869"/>
				</g>
				<g>
					<path fill="#F1D7A8" d="M245.567123,37.611671l-54.678986-26.270016l-17.891113,7.9632l55.373657,25.961243
						L245.567123,37.611671z M245.567123,37.611671"/>
				</g>
				<g>
					<rect x="224.017365" y="43.808067" fill="#F1D7A8" width="5.684959" height="101.100906"/>
				</g>
				<g>
					<path fill="#F49C52" d="M246.261047,127.595299V37.302887l-17.890366,7.963211v90.292404L246.261047,127.595299z
						 M246.261047,127.595299"/>
				</g>
				<g>
					<polyline fill="#F1D7A8" points="176.951279,17.545015 171.643112,19.884369 171.643112,23.011265 174.296921,24.266766
						177.138702,21.103611 178.062317,19.102867 					"/>
				</g>
			</g>
			<g>
				<path fill="#FFFFFF" d="M148.731308,83.974091h8.604355c1.603882,0,2.904312-1.300621,2.904312-2.904312v-6.692612
					c0-1.604401-1.30043-2.904129-2.904312-2.904129h-8.604355c-1.603882,0-2.904297,1.299728-2.904297,2.904129v6.692612
					C145.827011,82.67347,147.127426,83.974091,148.731308,83.974091L148.731308,83.974091z M148.731308,83.974091"/>
			</g>
			<g>
				<path fill="#FFFFFF" d="M156.373138,83.259209c0.562103,1.329742,1.334549,2.439369,2.228317,3.202759
					c-2.545441-0.502586-4.364273-1.356041-5.650848-3.018181L156.373138,83.259209z M156.373138,83.259209"/>
			</g>
			<g>
				<path fill="#D62B3F" d="M151.128937,74.308411c1.052078,0,1.904816,0.915459,1.904816,2.044456
					c0-1.128998,0.852219-2.044456,1.904282-2.044456c1.052078,0,1.904999,0.915459,1.904999,2.044456
					c0,1.745285-1.705841,4.784958-3.80928,4.784958c-2.103973,0-3.809814-3.039673-3.809814-4.784958
					C149.223938,75.223869,150.076874,74.308411,151.128937,74.308411L151.128937,74.308411z M151.128937,74.308411"/>
			</g>
			<g>
				<path fill="#FFFFFF" d="M172.045685,74.48056l15.216492-5.60643l-14.349716,7.55442L172.045685,74.48056z M172.045685,74.48056"
					/>
			</g>
			<g>
				<path fill="#FFFFFF" d="M185.432861,84.095428l15.216705-5.606445l-14.349228,7.554428L185.432861,84.095428z
					 M185.432861,84.095428"/>
			</g>
			<g>
				<path fill="#FFFFFF" d="M188.886826,101.599411l15.216507-5.606613l-14.349716,7.553886L188.886826,101.599411z
					 M188.886826,101.599411"/>
			</g>
			<g>
				<path fill="#F1D7A8" d="M176.588318,81.858215l15.21669-5.606613l-14.349915,7.55442L176.588318,81.858215z
					 M176.588318,81.858215"/>
			</g>
			<g>
				<path fill="#F9E94D" d="M180.655014,94.039299l15.216507-5.606613L181.52179,95.98658L180.655014,94.039299z
					 M180.655014,94.039299"/>
			</g>
			<g>
				<path fill="#D62B3F" d="M166.21698,95.875542l11.174347,2.548996V80.066391l-10.860596-2.088875
					c-0.162369-0.031265-0.313751,0.092918-0.313751,0.25885V95.875542z M166.21698,95.875542"/>
			</g>
			<g>
				<path fill="#D62B3F" d="M185.939529,108.233574l-8.548203-7.826408V80.066391l8.820908,7.811127
					c0.172867,0.152786,0.271469,0.3713,0.271469,0.601723v19.515038
					C186.483704,108.276741,186.147751,108.424553,185.939529,108.233574L185.939529,108.233574z M185.939529,108.233574"/>
			</g>
			<g>
				<path fill="#FFFFFF" d="M177.505722,81.230034l-10.827179-2.180367l-1.844589,0.988121v17.75927l10.644028,2.448975
					l7.85643,7.063202l2.157608-1.016541V88.532707L177.505722,81.230034z M177.505722,81.230034"/>
			</g>
			<g>
				<path fill="#E2E5ED" d="M166.226059,83.752014l7.859818,1.80835V84.74778l-7.859818-1.808533V83.752014z M166.226059,83.752014"
					/>
			</g>
			<g>
				<path fill="#E2E5ED" d="M166.226059,85.292641l7.859818,1.80835v-0.812592l-7.859818-1.808533V85.292641z M166.226059,85.292641
					"/>
			</g>
			<g>
				<path fill="#E2E5ED" d="M166.226059,86.833084l7.859818,1.808533v-0.812599l-7.859818-1.808525V86.833084z
					 M166.226059,86.833084"/>
			</g>
			<g>
				<path fill="#E2E5ED" d="M166.226059,88.373711l7.859818,1.808525v-0.812592l-7.859818-1.808525V88.373711z
					 M166.226059,88.373711"/>
			</g>
			<g>
				<path fill="#E2E5ED" d="M166.226059,89.914337l7.859818,1.808525v-0.812599l-7.859818-1.807816V89.914337z
					 M166.226059,89.914337"/>
			</g>
			<g>
				<path fill="#E2E5ED" d="M166.226059,91.455666l7.859818,1.807816V92.45089l-7.859818-1.807816V91.455666z M166.226059,91.455666
					"/>
			</g>
			<g>
				<path fill="#E2E5ED" d="M166.226059,92.996292l7.859818,1.807816v-0.812775l-7.859818-1.807632V92.996292z
					 M166.226059,92.996292"/>
			</g>
			<g>
				<path fill="#E2E5ED" d="M166.226059,94.536911l7.859818,1.807823V95.53196l-7.859818-1.80764V94.536911z M166.226059,94.536911"
					/>
			</g>
			<g>
				<path fill="#E2E5ED" d="M182.505829,92.197556l-6.199265-5.573929V85.81868l6.199265,5.573212V92.197556z M182.505829,92.197556
					"/>
			</g>
			<g>
				<path fill="#E2E5ED" d="M182.505829,93.724319l-6.199265-5.573921v-0.80513l6.199265,5.573921V93.724319z M182.505829,93.724319
					"/>
			</g>
			<g>
				<path fill="#E2E5ED" d="M182.505829,95.250908l-6.199265-5.573921v-0.804955l6.199265,5.573921V95.250908z
					 M182.505829,95.250908"/>
			</g>
			<g>
				<path fill="#E2E5ED" d="M182.505829,96.777672l-6.199265-5.573212v-0.805664l6.199265,5.573921V96.777672z
					 M182.505829,96.777672"/>
			</g>
			<g>
				<path fill="#E2E5ED" d="M182.505829,98.305153l-6.199265-5.573929v-0.80513l6.199265,5.573395V98.305153z M182.505829,98.305153
					"/>
			</g>
			<g>
				<path fill="#E2E5ED" d="M182.505829,99.831741l-6.199265-5.573921v-0.804955l6.199265,5.573921V99.831741z
					 M182.505829,99.831741"/>
			</g>
			<g>
				<path fill="#E2E5ED" d="M182.505829,101.358505l-6.199265-5.573212V94.97963l6.199265,5.573921V101.358505z
					 M182.505829,101.358505"/>
			</g>
			<g>
				<path fill="#E2E5ED" d="M182.505829,102.885269l-6.199265-5.573212v-0.805664l6.199265,5.573921V102.885269z
					 M182.505829,102.885269"/>
			</g>
		</g>
		<g>
			<path fill="#ACDDEA" d="M159.325058,102.885269v32.957642l52.333939,14.481735v-22.854958L159.325058,102.885269z
				 M159.325058,102.885269"/>
		</g>
	</g>
</g>
<g id="mec" display="none">
	<g display="inline">
		<path fill="#F1D7A8" d="M60.448151,83.233353c-0.604557,0.231834-1.315174,0.885612-1.678837,1.501717
			c-0.596745,1.011208-0.533672,1.827354-0.613441,3.172203c-0.112991,1.890961-1.724495,1.965218-3.283066,3.042343
			c-2.198479,1.519836-5.126408,4.59948-7.6031,5.707161c-2.156906,0.965202-11.292278,4.396248-13.535885,5.138138
			c2.805706,0.433655,6.120922,7.811836,7.242992,10.419815c2.108231-1.69323,10.884209-9.98954,13.276157-11.249107
			c0.813477-0.428146,1.642063-0.861984,2.544193-1.035378c2.33865-0.450531,5.088043,0.827164,6.973667-0.626762"/>
	</g>
	<g display="inline">
		<path fill="#0E2857" d="M74.717407,79.241623c1.009781,0.819702,0.24427,2.956352,0.24427,2.956352L67.84996,98.976593
			c0,0-0.823074,1.110077-1.528183,1.091423c-3.274883-0.087402-5.805046-0.434364-8.84668-1.107498
			c-0.251209-0.055603-0.494061-0.170723-0.68486-0.343582c-0.268616-0.243568-0.732826-0.999756-0.659988-1.354355
			c0.41571-2.022957,8.882751-18.04512,8.882751-18.04512c0.295616-0.478241,1.309494-0.617706,1.844597-0.683617
			c2.194923-0.269859,4.169914-0.290108,6.212944,0.190086C73.546654,78.835686,74.337753,78.932854,74.717407,79.241623
			L74.717407,79.241623z M74.717407,79.241623"/>
	</g>
	<g display="inline">
		<path fill="#FFFFFF" d="M65.326729,79.513786l8.861794,0.788261l-7.370949,17.815804l-9.916702-1.128822L65.326729,79.513786z
			 M65.326729,79.513786"/>
	</g>
	<g display="inline">
		<path fill="#F1D7A8" d="M60.448151,83.233353c0.267731-0.240723,0.489799-0.826454,0.714001-1.396904
			c0.228287-0.580215,1.036083-0.624634,1.323349-0.071411c0.020962,0.040146,0.041748,0.079765,0.061825,0.119202
			c0.487839,0.955605,0.648796,2.026512,0.213718,3.006989c-0.319244,0.718971-1.305408,1.673866-2.074299,1.83979"/>
	</g>
	<g display="inline">
		<path fill="#0E2857" d="M62.019157,87.903008l7.981354,0.843307l-0.216393,0.388535l-7.970329-0.956299L62.019157,87.903008z
			 M62.019157,87.903008"/>
	</g>
	<g display="inline">
		<path fill="#0E2857" d="M61.630623,88.610962l7.982056,0.843132l-0.216553,0.388527l-7.970161-0.956116L61.630623,88.610962z
			 M61.630623,88.610962"/>
	</g>
	<g display="inline">
		<path fill="#95C8CF" d="M30.789368,100.738579l8.425465-2.036636c1.19846-0.290115,2.48024-0.576851,3.640507-0.158287
			c0.586437,0.211578,1.096485,0.589806,1.581657,0.981895c1.591969,1.288712,3.015869,2.78421,4.225525,4.436577
			c0.275543,0.376808,0.548244,0.782036,0.605804,1.245003c0.079769,0.637779-0.260975,1.246254-0.612732,1.784897
			c-1.320686,2.0187-2.98336,3.813896-4.895283,5.284523c-4.105431-1.66143-8.210323-3.323387-12.315754-4.98481
			c-0.697477-0.282478-1.42621-0.587868-1.896648-1.174843c-0.470421-0.587143-0.564226-1.548965,0.004093-2.041603"/>
	</g>
	<g display="inline">
		<path fill="#0E2857" d="M47.114483,75.051552l-0.987167-1.390709c0.634026-0.450035,1.205677-1.170021,1.609737-2.027588
			c0.876045-1.861038,0.623096-3.56472-0.151978-3.929573c-0.353748-0.166725-0.861382-0.06662-1.392178,0.275154
			l-0.923321-1.434074c1.05101-0.676788,2.131424-0.812981,3.04208-0.384109c1.784012,0.840042,2.209324,3.562988,0.968342,6.199181
			C48.752758,73.478851,47.983761,74.434616,47.114483,75.051552z"/>
	</g>
	<g display="inline">
		<path fill="#F1D7A8" d="M31.594498,100.802536c0,0,1.799999-5.83419,5.118595-8.809914
			c2.514172-2.253372,3.126373-0.095039,5.376194-1.913338c2.237389-1.80764-0.419971-4.268517,2.064529-5.990166
			c0.368458-0.25547,0.238056-1.004997-0.174278-1.17981c-2.497475-1.060425-4.687599,0.839066-5.725117-3.608704
			c0.779385-0.29277,3.893848,0.267906,5.587788-0.080475c0.857719-0.176231,1.066643-1.198463,0.702271-1.731422l3.011787-0.56353
			c0.764091-0.142838,1.169323-0.986694,0.802998-1.67244c-0.648262-1.213028-1.762691-3.330315-2.433159-5.893166
			c-0.194889-5.096397-1.902863-11.210205-1.307365-14.582813c0.314449-1.777252-12.802174-7.876507-18.070885-7.876507
			c-9.182449,0-12.544046,14.847332-11.075552,22.630043c2.815306,14.923012-2.476858,15.843262-2.002164,30.619171
			L31.594498,100.802536z M31.594498,100.802536"/>
	</g>
	<g display="inline">
		<path fill="#3D1B04" d="M45.157215,70.349281c1.005527,0.205368,1.324055-1.353203,0.318535-1.558739
			C44.470932,68.585167,44.152397,70.143913,45.157215,70.349281L45.157215,70.349281z M45.157215,70.349281"/>
	</g>
	<g display="inline">
		<path fill="#F49C52" d="M26.692287,71.354813c-0.240904-0.555878-0.64613-1.048523-1.17767-1.337921
			c-0.531549-0.289406-1.476843-0.676689-2.036814-0.446983c-0.798033,0.328308-1.738359,1.518425-1.738359,2.381653
			c0,2.48645,1.689852,3.014618,2.192972,3.716179c0.555887-2.036102,1.090094-1.044434,1.138763-0.857719
			c0.10269,0.392082,0.074974,0.804253,0.045839,1.208939l-0.023628,0.333107
			c-0.026472,0.366325,0.170012,0.711334,0.498142,0.876373c0.599054,0.3013,1.489998,0.740463,1.565678,0.725182
			c0.823784-0.787537-0.85701-1.701569-0.866779-2.841057c-0.004797-0.511459-0.514839-1.420525-0.824499-1.827888
			c-0.200394-0.262924-1.400991,0.226334-1.649529,0.007645c-0.248358-0.218521-0.264351-0.672432-0.194168-0.995766
			c0.369877-1.703705,1.78614-1.175545,1.919382-1.186729C25.891418,71.081406,26.376413,71.200073,26.692287,71.354813
			L26.692287,71.354813z M26.692287,71.354813"/>
	</g>
	<g display="inline">
		<g>
			<path fill="#F49C52" d="M23.069721,79.220131c3.244345,0.741173,3.383799,0.730865,3.726671,0.98616
				c2.330301,1.735687-7.170862,9.509514-5.290201,15.415825c0.61912,1.945137-1.339346,3.848-8.529396,1.659828
				c-1.892561-0.575249-4.381151-1.593918-4.375469-1.894508c0.024875-1.319801,0.040857-1.512733,0.846528-2.557877
				c5.013245-6.503944,3.52751-12.709969,8.333259-11.653099"/>
		</g>
		<g>
			<path fill="#0E2857" d="M-24.31592,162.922958c0.014032-6.461472,11.51675-63.565292,32.330097-70.234993
				c1.208236-0.386574,2.558052-0.299881,3.771796,0.068047c1.779922,0.539177,3.158874,2.013893,4.935433,2.563377
				c1.53298,0.473984,3.183228,0.208214,4.784784,0.302727c3.717607,0.219223,7.334644-0.231888,10.712765,1.336494
				c10.121437,4.69915,46.376266,41.137535,39.827141,57.822227"/>
		</g>
		<g>
			<path fill="#0A1F25" d="M11.785974,92.756012c2.02899,0.428856,4.205979,2.651672,6.524549,2.832703
				c-1.117977,4.598953,1.381628,9.251915,4.678726,12.647614c3.296387,3.395508,7.399685,5.932602,10.652369,9.371292
				c0.960403,1.015121,20.353649,15.560028,24.062691,32.799713c0.294071,1.366852-0.158295,2.988159-1.391388,3.645294
				c-0.566906,0.301849-1.224232,0.373428-1.863258,0.433655c-14.287361,1.339523-59.357227,8.074448-73.593781,9.876038
				c-3.034697,0.383743-6.581583,0.760544-8.70723-1.439362c0-4.629333,3.535431-41.090134,14.720499-54.50898
				C-11.422685,106.364677,1.033576,90.484695,11.785974,92.756012L11.785974,92.756012z M11.785974,92.756012"/>
		</g>
	</g>
	<g display="inline">
		<path fill="#D62B3F" d="M65.784019,80.286766l-2.487171,4.790466l3.243626,0.278648
			c0.440582,0.055611,0.861092-0.17215,1.050652-0.567604l1.365639-2.852959c0.547523-1.178391,0.561386-1.392815-0.854172-1.512024
			L65.784019,80.286766z M65.784019,80.286766"/>
	</g>
	<g display="inline">
		<path fill="#95C8CF" d="M66.378426,92.727715l-6.136597-0.790825c-0.243267-0.031792-0.351002-0.264969-0.238327-0.51902
			l0.741199-1.668671c0.11285-0.254059,0.4048-0.436073,0.648781-0.404297l6.1366,0.791008
			c0.243431,0.030899,0.350998,0.264793,0.238327,0.518845l-0.741203,1.668671
			C66.914536,92.577469,66.622406,92.759499,66.378426,92.727715L66.378426,92.727715z M66.378426,92.727715"/>
	</g>
	<g display="inline">
		<path fill="#B4EFB7" d="M66.577049,96.331009l-6.145756-0.719467c-0.244427-0.028725-0.354218-0.260864-0.243988-0.515984
			l0.721752-1.677582c0.10952-0.255104,0.398979-0.440613,0.643242-0.412064l6.145218,0.719658
			c0.244263,0.028549,0.354759,0.260857,0.24453,0.515976l-0.721581,1.677574
			C67.110771,96.174232,66.821312,96.359734,66.577049,96.331009L66.577049,96.331009z M66.577049,96.331009"/>
	</g>
	<g display="inline">
		<path fill="#95C8CF" d="M60.724232,91.647621c0.03339,0.345718-0.128269,0.704399-0.41074,0.907104
			c0.356728-0.028427,0.723766-0.060402,1.040169-0.22686c0.272701-0.14373,0.487843-0.378235,0.657146-0.63636"/>
	</g>
	<g display="inline">
		<path fill="#B4EFB7" d="M66.033096,95.799057c-0.444138,0.398308-0.329552,0.761253,0.06662,1.159554
			c-0.777245-0.147095-1.14357-0.152596-1.238792-0.973541"/>
	</g>
	<g display="inline">
		<path fill="#F9E94D" d="M63.353264,86.011604l0.070671,0.467323l0.52655,0.034576l-0.479198,0.23085l0.095875,0.46199
			l-0.366528-0.324089l-0.46785,0.251183l0.252499-0.431778l-0.385376-0.307274l0.523449,0.05764L63.353264,86.011604z
			 M63.353264,86.011604"/>
	</g>
	<g display="inline">
		<path fill="#F9E94D" d="M64.926979,86.134598l0.070488,0.467155l0.527275,0.034714l-0.479179,0.231392l0.096046,0.461975
			L64.7742,87.005791l-0.467171,0.250435l0.251801-0.431564l-0.384476-0.306786l0.522575,0.057861L64.926979,86.134598z
			 M64.926979,86.134598"/>
	</g>
	<g display="inline">
		<path fill="#F9E94D" d="M66.501251,86.258102l0.070473,0.466614l0.527283,0.035255l-0.479195,0.23085l0.095345,0.462013
			l-0.366531-0.324081l-0.468063,0.25029l0.252716-0.430885l-0.384666-0.307312l0.522736,0.057671L66.501251,86.258102z
			 M66.501251,86.258102"/>
	</g>
	<g display="inline">
		<path fill="#F9E94D" d="M68.075508,86.381065l0.070457,0.466446l0.526588,0.035278l-0.479202,0.230858l0.096046,0.461975
			l-0.366531-0.324081l-0.468048,0.250473l0.252708-0.430893l-0.385376-0.307457l0.523438,0.05764L68.075508,86.381065z
			 M68.075508,86.381065"/>
	</g>
	<g display="inline">
		<path fill="#F9E94D" d="M69.649216,86.503883l0.071205,0.4673l0.52655,0.034569l-0.479202,0.230675l0.095879,0.462166
			l-0.367249-0.324234l-0.467133,0.251152l0.25251-0.431595L68.8964,86.886635l0.522728,0.057671L69.649216,86.503883z
			 M69.649216,86.503883"/>
	</g>
	<g display="inline">

			<rect x="38.669018" y="58.792824" transform="matrix(0.009279 -0.999957 0.999957 0.009279 -29.132973 107.17733)" fill="#0E2857" width="1.705481" height="18.996252"/>
	</g>
	<g display="inline">
		<path fill="#3D1B04" d="M18.080103,44.959908c-2.336514,0.635651-4.140074,3.422523-5.035451,5.673058
			c-0.150471,0.378937-0.283008,0.777237-0.54807,1.08672c-0.303425,0.354065-0.744017,0.551079-1.158302,0.764088
			c-3.220713,1.651661-8.953457,7.399857-7.123602,13.951591c1.830733,6.552277,0.915448,5.494698,2.577406,10.649529
			c3.107542,9.640442,10.96949,7.672379,13.88978,7.173523c2.138084-0.365784,3.192102-2.637108,3.649561-4.757767
			c-1.938206-1.178391-3.553804-2.982117-4.206154-5.154839c-0.652348-2.172897-0.231838-4.709984,1.321928-6.363068
			c1.55324-1.652901,4.265856-2.197762,6.208332-1.027023c2.118002,1.275566,2.810503,4.006302,2.984072,6.472679
			c3.113049-1.533691,4.775723-0.561394,3.907703-6.711449c2.85704-1.122063,6.038837-1.06237,8.33308-3.101315
			c2.294235-2.038776,5.074184-6.244221,3.918179-8.748089c-0.583775-1.26437-2.514347-2.480949-3.321434-2.685612
			c-0.174816-1.998615-0.947968-2.803574-2.841061-3.46764c-0.581467-0.204124-1.200584-0.306808-1.755051-0.575428
			c-0.720928-0.349628-3.803596-3.237934-4.480991-3.666794c-2.266346-1.435097-7.040115-2.950142-9.485712-1.846012
			c-0.99522,0.448936-1.896643,1.097195-2.922247,1.472584C21.148209,44.408112,18.947592,44.723988,18.080103,44.959908
			L18.080103,44.959908z M18.080103,44.959908"/>
	</g>
	<g display="inline">
		<path fill="#2D1403" d="M42.089287,53.095264c-2.882805-0.462967-5.653687-0.748817-7.692635,1.333652
			c-0.146389-2.240047,0.546822-3.17683,1.891132-4.899368c0.293488-0.376804,0.587688-0.752895,0.881168-1.128998
			c-4.977711-0.441292-4.452389,2.948009-6.155392,3.682793c-0.624628,0.269325-1.357454-0.220646-1.081202-1.953499
			c0.405237-2.533539,3.114466-4.565548,4.148603-5.148441c-1.723972-0.494762-2.535851,0.219936-4.124981,1.052078
			c-1.588589,0.831959-1.809233,3.107533-3.132586,4.317726c-0.508627-1.256737-3.838947-3.598763-5.154135-3.930614
			c-1.314278-0.33168-2.779226-0.000713-3.822948,0.864815c1.109638-0.560848,2.895243-0.052052,3.792398,1.982632
			c0.444847,1.008373-0.087408,2.178234-1.126154,2.546864c-0.370588,0.131821-1.473288,0.189377-4.962618-0.399723
			c-1.025593-0.172863-2.082642-0.067337-3.053358,0.304504c-2.508834,0.962528-4.555249,2.990997-6.231239,5.270664
			c-2.155498,2.931309-3.414176,7.739891-2.403146,11.363693c0.611318,2.188179,1.577404,4.268684,2.135416,6.47126
			c0.489083,1.931999,0.718796,4.065987,2.067907,5.533058c0.940332,1.023468,3.306699,3.263695,4.60374,3.762558
			c2.767521,1.065926,7.095194,1.000725,9.594095-0.597458c0.861975-0.551086,1.199877-2.278244,0.882057-3.250549
			c-0.171448-0.523903-0.603148-0.912613-1.010511-1.28373c-2.129728-1.943901-2.717409-4.490768-2.843721-7.371437
			c-0.061827-1.414848-1.569042-9.292072,5.879139-12.359459c0.995222-0.41003,5.823174-0.271992,7.215279,3.219997
			c0.701553,1.759144,2.752941,2.623249,4.64603,2.687031C33.326633,58.830849,39.080879,53.771061,42.089287,53.095264
			L42.089287,53.095264z M42.089287,53.095264"/>
	</g>
	<g display="inline">
		<path fill="#F1D7A8" d="M74.353745,85.622627c-0.182457-1.373978-0.365082-2.747963-0.547539-4.122833
			c-0.447685,0.116722-0.875832,0.307518-1.261703,0.562813c-1.279648,0.848122-0.876373,3.215195,0.10553,4.526825
			c0.104103,0.013855,0.208206,0.02771,0.312317,0.041573"/>
	</g>
	<g display="inline">
		<path fill="#F1D7A8" d="M73.339149,83.04113c0.45533,0.174988,0.918839,0.353882,1.299194,0.659279
			c0.38089,0.304672,0.671707,0.761246,0.656433,1.248375c-0.019363,0.612907-0.493347,1.101463-0.936951,1.524818
			c-0.315689,0.301117-0.630676,0.602249-0.946541,0.903374c-0.222778,0.213188-0.483582,0.440758-0.791809,0.422638
			c0.16806-0.782036,0.398476-1.550926,0.689835-2.296188"/>
	</g>
	<g display="inline">
		<path fill="#F1D7A8" d="M71.309982,90.812111c0.286728-0.275368,1.257431-0.913147,1.544876-1.1894
			c0.394051-0.379654,0.799446-0.775108,0.999855-1.284447c0.119377-0.302727,0.157578-0.648972,0.039612-0.952232
			c-0.117966-0.303253-0.414291-0.546822-0.739754-0.540604c-0.471146,0.008354-0.783463,0.478958-0.993095,0.901421
			C71.670807,88.735855,71.616783,89.751869,71.309982,90.812111L71.309982,90.812111z M71.309982,90.812111"/>
	</g>
	<g display="inline">
		<path fill="#F1D7A8" d="M69.508553,94.742012c0.812599-0.438454,0.913155-0.13324,1.55999-0.792336
			c0.356026-0.362953,0.718262-1.053497,0.731407-1.562126c0.006927-0.279808,0.035355-0.903549,0.246407-1.071609
			c0.357262-0.285851,0.712578-0.596748,0.908356-0.948677c0.310181-0.559258,0.444138-1.245544,0.228287-1.847969
			c-0.354599-0.122047-0.749527-0.125603-1.106087-0.009773c-0.114586,0.036774-0.231133,0.090256-0.298454,0.18956
			c-0.055611,0.081902-0.070168,0.183876-0.085991,0.281052c-0.177116,1.078362-0.666206,2.076248-1.149963,3.056198
			C70.250977,92.627563,69.800621,94.151489,69.508553,94.742012L69.508553,94.742012z M69.508553,94.742012"/>
	</g>
	<g display="inline">
		<path fill="#F1D7A8" d="M73.189926,88.509521c-0.068047-1.244827-0.203949-2.486458-0.406654-3.716713l-0.594078,0.212296
			c-0.500275,0.179787-0.906921,0.559967-1.103958,1.053497C70.357925,87.874588,71.951309,88.676163,73.189926,88.509521
			L73.189926,88.509521z M73.189926,88.509521"/>
	</g>
	<g display="inline">
		<path fill="#F1D7A8" d="M72.574356,89.408279c-0.033936-0.85363-0.029854-1.708504,0.012596-2.561424
			c-2.068779,0.637779-2.722374,1.578102-2.003578,3.698059c0.17765,0.52533,0.587852,0.545578,1.279823,0.358154"/>
	</g>
	<g display="inline">
		<defs>
			<line id="SVGID_1_" x1="-1.831284" y1="123.303596" x2="-2.449358" y2="2.498259"/>
		</defs>
		<clipPath id="SVGID_2_">
			<use xlink:href="#SVGID_1_"  overflow="visible"/>
		</clipPath>
		<g clip-path="url(#SVGID_2_)">
			<line fill="#CDDCE8" x1="-11.640324" y1="13.667596" x2="14.408336" y2="13.900149"/>
		</g>
	</g>
	<g display="inline">
		<path fill="#F1D7A8" d="M71.79924,89.99472c-0.484291-0.109612-1.017258,0.022202-1.394768,0.345535
			c-0.553215,0.474693-0.715591,1.254066-0.802292,1.977837c-0.076393,0.630142-0.357437,1.728577-0.0215,2.267227
			c0.33168-0.117958,0.912613-0.649681,1.244301-0.767647"/>
	</g>
</g>
<g id="mec2">
	<g>
		<g>
			<path fill="#F1D7A8" d="M64.622032,71.21991c-0.604553,0.231842-1.315174,0.885612-1.678833,1.501717
				c-0.596745,1.011215-0.533676,1.827362-0.613441,3.172211c-0.112991,1.890953-1.724499,1.965218-3.283066,3.042336
				c-2.198483,1.519844-5.126411,4.599487-7.6031,5.707169c-2.15691,0.965195-11.292282,4.39624-13.535885,5.138138
				c2.805702,0.433647,6.120918,7.811836,7.242989,10.419815c2.108234-1.69323,10.884209-9.989548,13.276157-11.249115
				c0.81348-0.428146,1.642063-0.861984,2.544197-1.03537c2.33865-0.450539,5.088039,0.827156,6.973667-0.626762"/>
		</g>
		<g>
			<path fill="#0E2857" d="M78.891289,67.22818c1.009781,0.819702,0.24427,2.95636,0.24427,2.95636l-7.11171,16.778618
				c0,0-0.823074,1.110077-1.528191,1.091423c-3.274879-0.087402-5.805046-0.434364-8.846676-1.107498
				c-0.251209-0.055603-0.494061-0.170731-0.684864-0.343582c-0.268612-0.243576-0.732826-0.999756-0.659985-1.354355
				c0.41571-2.022957,8.882748-18.04512,8.882748-18.04512c0.295616-0.478249,1.309494-0.617714,1.844597-0.683617
				c2.194923-0.269859,4.169914-0.290115,6.212944,0.190086C77.720535,66.822243,78.511635,66.919418,78.891289,67.22818
				L78.891289,67.22818z M78.891289,67.22818"/>
		</g>
		<g>
			<path fill="#FFFFFF" d="M69.50061,67.500351l8.861794,0.788254l-7.370941,17.815811l-9.916706-1.12883L69.50061,67.500351z
				 M69.50061,67.500351"/>
		</g>
		<g>
			<path fill="#F1D7A8" d="M64.622032,71.21991c0.267731-0.240723,0.489799-0.826447,0.714005-1.396896
				c0.228287-0.580223,1.036079-0.624634,1.323349-0.071419c0.020958,0.040154,0.041748,0.079765,0.061821,0.119202
				c0.487839,0.955612,0.648796,2.026512,0.213722,3.006989c-0.319244,0.718971-1.305412,1.673866-2.074303,1.839798"/>
		</g>
		<g>
			<path fill="#0E2857" d="M66.193039,75.889572l7.981354,0.843307l-0.216385,0.388527l-7.970337-0.956291L66.193039,75.889572z
				 M66.193039,75.889572"/>
		</g>
		<g>
			<path fill="#0E2857" d="M65.804504,76.597527l7.982056,0.843124l-0.216553,0.388535l-7.970161-0.956116L65.804504,76.597527z
				 M65.804504,76.597527"/>
		</g>
		<g>
			<path fill="#95C8CF" d="M34.963253,88.725136l8.425461-2.036636c1.198463-0.290108,2.480244-0.576843,3.640507-0.158287
				c0.586441,0.211586,1.096489,0.589813,1.581661,0.981895c1.591965,1.288712,3.015865,2.78421,4.225525,4.436577
				c0.275539,0.376808,0.548241,0.782036,0.605804,1.245003c0.079765,0.637787-0.260975,1.246254-0.612736,1.784904
				c-1.320683,2.018692-2.98336,3.813896-4.895279,5.284523c-4.105431-1.66143-8.210323-3.323387-12.315754-4.984818
				c-0.697479-0.282478-1.426212-0.58786-1.896652-1.174835c-0.470421-0.587143-0.564224-1.548973,0.004093-2.041611"/>
		</g>
		<g>
			<path fill="#0E2857" d="M51.288364,63.038113l-0.987164-1.390705c0.634022-0.450035,1.205677-1.170025,1.609737-2.027592
				c0.876045-1.861038,0.623093-3.56472-0.151978-3.929573c-0.353748-0.166725-0.861385-0.06662-1.392181,0.275158
				l-0.923321-1.434078c1.05101-0.676788,2.131428-0.812981,3.042084-0.384109
				c1.784008,0.840042,2.209324,3.562988,0.968338,6.199184C52.926643,61.465416,52.157642,62.421177,51.288364,63.038113z"/>
		</g>
		<g>
			<path fill="#F1D7A8" d="M35.768379,88.789093c0,0,1.799999-5.83419,5.118599-8.809906
				c2.514168-2.253372,3.126369-0.095047,5.376194-1.913345c2.237385-1.807632-0.419975-4.268509,2.064529-5.990166
				c0.368458-0.25547,0.238056-1.004997-0.174278-1.17981c-2.497475-1.060417-4.687603,0.839066-5.725117-3.608704
				c0.779381-0.29277,3.893845,0.267906,5.587788-0.080475c0.857719-0.176231,1.066639-1.198456,0.702271-1.731422
				l3.011784-0.563522c0.764095-0.142838,1.169327-0.986694,0.803001-1.67244
				c-0.648262-1.213036-1.762695-3.330322-2.433163-5.893169c-0.194889-5.096394-1.902859-11.210205-1.307362-14.582813
				c0.314445-1.777252-12.802177-7.876507-18.070887-7.876507c-9.182449,0-12.544046,14.847332-11.075552,22.630047
				c2.815306,14.923004-2.476858,15.843262-2.002165,30.619171L35.768379,88.789093z M35.768379,88.789093"/>
		</g>
		<g>
			<path fill="#3D1B04" d="M49.331097,58.335842c1.005527,0.205368,1.324059-1.353199,0.318535-1.558739
				C48.644814,56.571728,48.326279,58.130478,49.331097,58.335842L49.331097,58.335842z M49.331097,58.335842"/>
		</g>
		<g>
			<path fill="#F49C52" d="M30.866171,59.341373c-0.240904-0.555882-0.64613-1.048519-1.17767-1.337925
				c-0.531549-0.289398-1.476843-0.676685-2.036814-0.44698c-0.798033,0.328308-1.738359,1.518421-1.738359,2.381649
				c0,2.486454,1.689854,3.014622,2.192972,3.716179c0.555887-2.036102,1.090094-1.04443,1.138763-0.857716
				c0.10269,0.392082,0.074976,0.804249,0.045839,1.208942l-0.023626,0.333099
				c-0.026474,0.366333,0.17001,0.711334,0.49814,0.876373c0.599054,0.301308,1.489998,0.740471,1.565678,0.725189
				c0.823786-0.787544-0.857008-1.701576-0.866779-2.841061c-0.004797-0.511459-0.514839-1.420521-0.824499-1.827888
				c-0.200394-0.262928-1.400991,0.226334-1.649529,0.007645c-0.248358-0.218517-0.264351-0.672432-0.194168-0.995766
				c0.369877-1.703705,1.78614-1.175541,1.919382-1.186733C30.065302,59.067963,30.550297,59.186638,30.866171,59.341373
				L30.866171,59.341373z M30.866171,59.341373"/>
		</g>
		<g>
			<g>
				<path fill="#F49C52" d="M27.243605,67.206688c3.244345,0.74118,3.383799,0.730873,3.726671,0.98616
					c2.330299,1.735687-7.170862,9.509514-5.290201,15.415833c0.61912,1.945137-1.339346,3.848-8.529396,1.659821
					c-1.892561-0.575241-4.381151-1.593918-4.375469-1.894508c0.024875-1.319794,0.040857-1.512726,0.846529-2.557877
					c5.013245-6.503944,3.52751-12.709961,8.333258-11.653091"/>
			</g>
			<g>
				<path fill="#0E2857" d="M-20.142036,150.909531c0.014032-6.461487,11.51675-63.565308,32.330097-70.235001
					c1.208237-0.386581,2.558052-0.299881,3.771796,0.068039c1.779922,0.539185,3.158874,2.013893,4.935433,2.563385
					c1.53298,0.473984,3.183228,0.208206,4.784784,0.302727c3.717607,0.219223,7.334646-0.231888,10.712767,1.336494
					c10.121433,4.69915,46.37627,41.137535,39.827137,57.82222"/>
			</g>
			<g>
				<path fill="#0A1F25" d="M15.959857,80.742569c2.028991,0.428856,4.205979,2.65168,6.524549,2.83271
					c-1.117977,4.598946,1.381628,9.251907,4.678726,12.647606c3.296387,3.395515,7.399685,5.932602,10.65237,9.3713
					c0.960403,1.015114,20.353649,15.56002,24.062691,32.799706c0.294071,1.366852-0.158295,2.988159-1.391392,3.645294
					c-0.566902,0.301849-1.224228,0.373444-1.863255,0.43367c-14.287365,1.339508-59.357227,8.074432-73.593781,9.876022
					c-3.034697,0.383743-6.581583,0.760544-8.70723-1.439346c0-4.629349,3.535431-41.090149,14.720499-54.508987
					C-7.248801,94.351234,5.207459,78.471252,15.959857,80.742569L15.959857,80.742569z M15.959857,80.742569"/>
			</g>
		</g>
		<g>
			<path fill="#D62B3F" d="M69.957901,68.273331l-2.487167,4.790459l3.243622,0.278656
				c0.440582,0.055603,0.861092-0.17215,1.050652-0.567612l1.365639-2.852959
				c0.547523-1.178383,0.561386-1.392815-0.854172-1.512016L69.957901,68.273331z M69.957901,68.273331"/>
		</g>
		<g>
			<path fill="#95C8CF" d="M70.552315,80.714279l-6.136597-0.790833c-0.243271-0.031784-0.351006-0.264969-0.238335-0.51902
				l0.741203-1.668671c0.112846-0.254051,0.4048-0.436073,0.648781-0.404297l6.136597,0.791016
				c0.243431,0.030899,0.351006,0.264786,0.238327,0.518837l-0.741203,1.668671
				C71.088425,80.564034,70.796288,80.746056,70.552315,80.714279L70.552315,80.714279z M70.552315,80.714279"/>
		</g>
		<g>
			<path fill="#B4EFB7" d="M70.750938,84.317566l-6.14576-0.719467c-0.244431-0.028717-0.354218-0.260857-0.243988-0.515976
				l0.721748-1.677582c0.10952-0.255104,0.398979-0.440613,0.643242-0.412064l6.145226,0.719658
				c0.244255,0.028549,0.354752,0.260849,0.244522,0.515968l-0.721581,1.677582
				C71.284653,84.160789,70.995193,84.346298,70.750938,84.317566L70.750938,84.317566z M70.750938,84.317566"/>
		</g>
		<g>
			<path fill="#95C8CF" d="M64.898117,79.634178c0.033386,0.345718-0.128273,0.704407-0.410744,0.907112
				c0.356728-0.028427,0.72377-0.060402,1.040169-0.226868c0.272705-0.143723,0.487846-0.378227,0.65715-0.63636"/>
		</g>
		<g>
			<path fill="#B4EFB7" d="M70.206978,83.785622c-0.444138,0.3983-0.329552,0.761253,0.06662,1.159554
				c-0.777245-0.147095-1.14357-0.152603-1.238785-0.973549"/>
		</g>
		<g>
			<path fill="#F9E94D" d="M67.527145,73.998169l0.070671,0.467323l0.52655,0.034569l-0.479195,0.230858l0.095871,0.461983
				l-0.366524-0.324081l-0.46785,0.251175l0.252495-0.43177l-0.385376-0.307281l0.523453,0.05764L67.527145,73.998169z
				 M67.527145,73.998169"/>
		</g>
		<g>
			<path fill="#F9E94D" d="M69.100861,74.121162l0.070488,0.467148l0.527275,0.034721l-0.479179,0.231384l0.096054,0.461983
				l-0.367416-0.324051l-0.467171,0.250443l0.251801-0.431572l-0.384468-0.306778l0.522568,0.057854L69.100861,74.121162z
				 M69.100861,74.121162"/>
		</g>
		<g>
			<path fill="#F9E94D" d="M70.67514,74.244659l0.070465,0.466621l0.527283,0.035248l-0.479195,0.230858l0.095345,0.462006
				l-0.366531-0.324081l-0.468056,0.250298l0.252708-0.430893l-0.384659-0.307312l0.522728,0.057671L70.67514,74.244659z
				 M70.67514,74.244659"/>
		</g>
		<g>
			<path fill="#F9E94D" d="M72.24939,74.36763l0.070457,0.466438l0.526588,0.035278l-0.479202,0.230858l0.096046,0.461983
				l-0.366524-0.324089L71.6287,75.488579l0.252716-0.430893l-0.385384-0.307457l0.523438,0.05764L72.24939,74.36763z
				 M72.24939,74.36763"/>
		</g>
		<g>
			<path fill="#F9E94D" d="M73.823097,74.49044l0.071205,0.4673l0.526558,0.034569l-0.47921,0.230675l0.095886,0.462166
				l-0.367256-0.324226l-0.467133,0.251144l0.25251-0.431595l-0.385376-0.307281l0.522736,0.057671L73.823097,74.49044z
				 M73.823097,74.49044"/>
		</g>
		<g>

				<rect x="42.842903" y="46.779385" transform="matrix(0.009279 -0.999957 0.999957 0.009279 -12.984897 99.449074)" fill="#0E2857" width="1.705481" height="18.996252"/>
		</g>
		<g>
			<path fill="#3D1B04" d="M22.253986,32.946468c-2.336514,0.635651-4.140074,3.422523-5.03545,5.673058
				c-0.150473,0.378937-0.283009,0.777237-0.548071,1.08672c-0.303425,0.354061-0.744017,0.551079-1.158302,0.764088
				c-3.220713,1.651661-8.953457,7.399857-7.123602,13.951591c1.830732,6.552277,0.915447,5.494698,2.577406,10.649525
				c3.107542,9.64045,10.96949,7.672386,13.88978,7.173531c2.138084-0.365791,3.192102-2.637108,3.649561-4.757774
				c-1.938206-1.178391-3.553804-2.982109-4.206154-5.154835c-0.652348-2.172901-0.231838-4.709984,1.321928-6.363068
				c1.55324-1.652905,4.265856-2.197765,6.208332-1.027023c2.118004,1.275566,2.810505,4.006298,2.98407,6.472683
				c3.113052-1.533695,4.775726-0.561398,3.907707-6.711452c2.85704-1.122063,6.038837-1.06237,8.333076-3.101315
				c2.294239-2.038776,5.074184-6.244221,3.918182-8.748089c-0.583778-1.26437-2.514351-2.480949-3.321438-2.685612
				c-0.174812-1.998615-0.947964-2.803574-2.841057-3.46764c-0.581467-0.204124-1.200588-0.306808-1.755054-0.575428
				c-0.720924-0.349628-3.803593-3.237934-4.480988-3.666794c-2.26635-1.435099-7.040117-2.950142-9.485714-1.846012
				c-0.99522,0.448936-1.896643,1.097197-2.922247,1.472584C25.322092,32.394672,23.121475,32.710548,22.253986,32.946468
				L22.253986,32.946468z M22.253986,32.946468"/>
		</g>
		<g>
			<path fill="#2D1403" d="M46.263172,41.081825c-2.882805-0.462967-5.653687-0.748817-7.692638,1.333652
				c-0.146389-2.240047,0.546822-3.17683,1.891136-4.899368c0.293488-0.376804,0.587685-0.752895,0.881168-1.128998
				c-4.977715-0.441292-4.452393,2.948009-6.155392,3.682793c-0.62463,0.269325-1.357456-0.22065-1.081203-1.953499
				c0.405239-2.533539,3.114464-4.565548,4.148602-5.148441c-1.723969-0.494762-2.535851,0.219936-4.124981,1.052078
				c-1.588589,0.831959-1.809231,3.107533-3.132582,4.317726c-0.508629-1.256737-3.838949-3.598763-5.154137-3.930614
				c-1.314278-0.33168-2.779226-0.000713-3.822948,0.864815c1.109638-0.560848,2.895243-0.052052,3.792398,1.982632
				c0.444847,1.008373-0.087408,2.178234-1.126154,2.546864c-0.370588,0.131821-1.473288,0.189377-4.962618-0.399723
				c-1.025593-0.172863-2.082642-0.067337-3.053358,0.304504c-2.508834,0.962528-4.555249,2.990997-6.231239,5.270664
				c-2.155498,2.931309-3.414176,7.739891-2.403145,11.363697c0.611318,2.188171,1.577403,4.268684,2.135416,6.471256
				c0.489082,1.931995,0.718796,4.065983,2.067906,5.533062c0.940333,1.023468,3.306699,3.263695,4.60374,3.76255
				c2.767521,1.065933,7.095194,1.000732,9.594095-0.59745c0.861975-0.551086,1.199877-2.278252,0.882057-3.250557
				c-0.171448-0.523903-0.603148-0.912613-1.010511-1.28373c-2.129728-1.943901-2.717409-4.490765-2.843721-7.371433
				c-0.061827-1.414848-1.569042-9.292072,5.879139-12.359459c0.995222-0.41003,5.823172-0.271992,7.215277,3.219997
				c0.701553,1.759144,2.752941,2.623249,4.646034,2.687035C37.500515,46.81741,43.254765,41.757622,46.263172,41.081825
				L46.263172,41.081825z M46.263172,41.081825"/>
		</g>
		<g>
			<path fill="#F1D7A8" d="M78.527626,73.609192c-0.182457-1.373985-0.365082-2.747971-0.547531-4.122841
				c-0.447693,0.116722-0.875839,0.307526-1.261703,0.562813c-1.279655,0.848129-0.876381,3.215202,0.105522,4.526825
				c0.104103,0.013855,0.208214,0.027718,0.312317,0.041573"/>
		</g>
		<g>
			<path fill="#F1D7A8" d="M77.513031,71.027687c0.455338,0.174995,0.918839,0.353889,1.299194,0.659279
				c0.380898,0.30468,0.671707,0.761253,0.656441,1.248383c-0.019371,0.612907-0.493355,1.101456-0.936951,1.524811
				c-0.315697,0.301125-0.630684,0.602249-0.946548,0.903374c-0.222778,0.213188-0.483582,0.440765-0.791809,0.422638
				c0.16806-0.782036,0.398476-1.550926,0.689835-2.296181"/>
		</g>
		<g>
			<path fill="#F1D7A8" d="M75.483871,78.798668c0.28672-0.27536,1.257431-0.913147,1.544868-1.1894
				c0.394051-0.379646,0.799446-0.775108,0.999855-1.284439c0.119385-0.302727,0.157585-0.648979,0.039612-0.952232
				c-0.117966-0.303261-0.414291-0.546822-0.739754-0.540604c-0.471138,0.008347-0.783455,0.478958-0.993088,0.901421
				C75.844688,76.72242,75.790665,77.738426,75.483871,78.798668L75.483871,78.798668z M75.483871,78.798668"/>
		</g>
		<g>
			<path fill="#F1D7A8" d="M73.682442,82.728577c0.812592-0.438454,0.913147-0.133247,1.55999-0.792343
				c0.356018-0.362946,0.718254-1.053497,0.7314-1.562119c0.006927-0.279808,0.035355-0.903557,0.246407-1.071617
				c0.357262-0.285843,0.712578-0.596741,0.908356-0.948677c0.310181-0.559258,0.444138-1.245537,0.228287-1.847961
				c-0.354599-0.122055-0.749527-0.125603-1.106087-0.009773c-0.114578,0.036774-0.231133,0.090248-0.298454,0.189552
				c-0.055603,0.081902-0.070168,0.183876-0.085991,0.281052c-0.177116,1.078369-0.666206,2.076256-1.149963,3.056198
				C74.424866,80.614128,73.974503,82.138054,73.682442,82.728577L73.682442,82.728577z M73.682442,82.728577"/>
		</g>
		<g>
			<path fill="#F1D7A8" d="M77.363808,76.496086c-0.068039-1.244827-0.203949-2.486458-0.406654-3.716721l-0.594078,0.212296
				c-0.500275,0.179794-0.906921,0.559975-1.103951,1.053497C74.531807,75.861145,76.125191,76.662727,77.363808,76.496086
				L77.363808,76.496086z M77.363808,76.496086"/>
		</g>
		<g>
			<path fill="#F1D7A8" d="M76.748238,77.394844c-0.033936-0.853638-0.029846-1.708511,0.012604-2.561432
				c-2.068787,0.637779-2.722382,1.57811-2.003586,3.698067c0.17765,0.525322,0.587852,0.545578,1.279823,0.358154"/>
		</g>
		<g>
			<path fill="#F1D7A8" d="M75.973122,77.981277c-0.484283-0.109612-1.01725,0.022209-1.394768,0.345543
				c-0.553215,0.474693-0.715591,1.254066-0.802292,1.977829c-0.076385,0.630142-0.35743,1.728584-0.0215,2.267235
				c0.33168-0.117966,0.912621-0.649689,1.244301-0.767647"/>
		</g>
	</g>
</g>
<g id="Calque_4">
</g>
<g id="Calque_5" display="none">
	<rect x="50.215942" y="59.192383" display="inline" fill="#CDDCE8" width="61.641285" height="11.1755"/>
	<rect x="111.857224" y="59.192383" display="inline" fill="#CDDCE8" width="61.641285" height="11.1755"/>
</g>
<g id="Calque_6">
</g>
<g id="resolutions" display="none">

		<rect x="0.326182" y="0.164752" display="inline" fill="none" stroke="#0E2857" stroke-width="0.25" stroke-miterlimit="10" width="223.062088" height="125.472366"/>

		<text transform="matrix(0.99999 0 0 1 2.834178 -1.864713)" display="inline" font-family="'MyriadPro-Regular'" font-size="7.39598px">1920x1080</text>

		<rect x="-0.461273" display="inline" fill="none" stroke="#000000" stroke-width="0.25" stroke-miterlimit="10" width="223.756912" height="125.801872"/>

		<rect x="-0.00001" y="-135.843613" display="inline" fill="none" stroke="#000000" stroke-miterlimit="10" width="223.714478" height="397.489105"/>
</g>
</svg>
